<?xml version="1.0" encoding="UTF-8" standalone="no"?>
<svg
   xmlns:dc="http://purl.org/dc/elements/1.1/"
   xmlns:cc="http://creativecommons.org/ns#"
   xmlns:rdf="http://www.w3.org/1999/02/22-rdf-syntax-ns#"
   xmlns:svg="http://www.w3.org/2000/svg"
   xmlns="http://www.w3.org/2000/svg"
   xmlns:sodipodi="http://sodipodi.sourceforge.net/DTD/sodipodi-0.dtd"
   xmlns:inkscape="http://www.inkscape.org/namespaces/inkscape"
   inkscape:export-ydpi="768"
   inkscape:export-xdpi="768"
   inkscape:export-filename="D:\Downloads\logo512.png"
   sodipodi:docname="filter.svg"
   inkscape:version="1.0 (4035a4fb49, 2020-05-01)"
   id="svg8"
   version="1.1"
   viewBox="0 0 16.933333 16.933334"
   height="64"
   width="64">
  <defs
     id="defs2">
    <rect
       id="rect848"
       height="16.906861"
       width="16.906861"
       y="0.01323625"
       x="0.01323625" />
  </defs>
  <sodipodi:namedview
     inkscape:snap-nodes="false"
     inkscape:window-maximized="1"
     inkscape:window-y="-8"
     inkscape:window-x="-8"
     inkscape:window-height="1017"
     inkscape:window-width="1920"
     units="px"
     showgrid="false"
     inkscape:document-rotation="0"
     inkscape:current-layer="layer1"
     inkscape:document-units="mm"
     inkscape:cy="4.6285462"
     inkscape:cx="-37.036285"
     inkscape:zoom="4.8188858"
     inkscape:pageshadow="2"
     inkscape:pageopacity="0.0"
     borderopacity="1.0"
     bordercolor="#666666"
     pagecolor="#ffffff"
     id="base" />
  <metadata
     id="metadata5">
    <rdf:RDF>
      <cc:Work
         rdf:about="">
        <dc:format>image/svg+xml</dc:format>
        <dc:type
           rdf:resource="http://purl.org/dc/dcmitype/StillImage" />
        <dc:title></dc:title>
      </cc:Work>
    </rdf:RDF>
  </metadata>
  <g
     id="layer1"
     inkscape:groupmode="layer"
     inkscape:label="Layer 1">
    <rect
       ry="1.5922595"
       y="0"
       x="0"
       height="16.933332"
       width="16.933332"
       id="rect1587"
       style="fill:#cccccc;fill-opacity:1;stroke:none;stroke-width:0.00971569;stroke-linecap:round;stroke-linejoin:round;stroke-miterlimit:4;stroke-dasharray:none" />
    <g
       transform="matrix(0.85516018,0,0,0.85516018,18.764964,5.8959305)"
       id="g1253">
      <path
         id="path879"
         style="fill:#dda064;stroke-width:0.0803439"
         d="m -15.196003,-1.4130538 c -1.085173,0.018499 -4.27621,0.78255136 -5.247741,1.24488514 l 1.946651,0.13229166 c 0.298444,-0.21796586 2.904398,-0.87246107 3.474723,-0.86868067 0.534949,0.003549 0.603928,0.0432004 1.538408,0.88108328 0.400828,0.35939518 0.588911,0.52870708 0.609265,0.63045234 l 0.785998,-0.0718301 c 5.24e-4,-0.0115298 0.0014,-0.022947 0.0036,-0.0366903 0.03595,-0.21844609 0.0064,-0.25052629 -0.836124,-0.91157234 -1.020664,-0.80084481 -1.503663,-1.01308501 -2.274797,-0.99993901 z" />
      <g
         id="g1162">
        <g
           id="g1142">
          <path
             d="m -15.159829,-1.4378584 c -0.04555,-1.035e-4 -0.05468,0.00581 -0.01602,0.01757 0.07733,0.023511 0.14056,0.1193229 0.14056,0.2129069 0,0.1636601 -0.0043,0.1642517 -0.110071,0.019637 -0.106459,-0.1455986 -0.112454,-0.1448782 -0.200504,0.019637 -0.135387,0.25297361 -0.126026,0.26046981 0.330729,0.26354983 0.526993,0.003557 0.598373,0.0447062 1.531173,0.88108328 0.441326,0.3957066 0.62538,0.5614879 0.611332,0.65939114 l 0.7953,-0.0485759 c -0.01339,-0.0239154 -0.01033,-0.0547534 -0.0026,-0.0961181 0.04086,-0.21813123 -0.215543,-0.49563019 -0.314192,-0.34003085 -0.04934,0.0778272 -0.06781,0.0628848 -0.06873,-0.05529395 -7.98e-4,-0.10483003 -0.202915,-0.31627551 -0.575676,-0.6025471 -0.753826,-0.57892055 -0.778683,-0.59163855 -0.916223,-0.47749023 -0.131554,0.1091802 -0.357601,-0.0208036 -0.357601,-0.20567222 0,-0.1295107 -0.123751,-0.1759481 -0.612365,-0.2299601 -0.107772,-0.011912 -0.189579,-0.017983 -0.235128,-0.018087 z m -0.583944,0.063562 c -0.227366,0.015854 -0.590774,0.081517 -1.130163,0.1917195 -1.04341,0.21317935 -2.27294,0.5471808 -3.043742,0.81235352 l 1.431954,0.33227946 c 0.122675,-0.07246488 1.058662,-0.40110658 1.241267,-0.43356527 0.765839,-0.13612868 1.589313,-0.40139421 1.689303,-0.54415281 0.191315,-0.2731405 0.190325,-0.3850574 -0.188619,-0.3586344 z m -1.56993,0.4004923 c 0.01527,-7.5436e-4 0.03035,0.0347073 0.05788,0.10645346 0.03548,0.0924522 0.01046,0.19572078 -0.06615,0.27233477 -0.105491,0.10549102 -0.122622,0.10671998 -0.117822,0.006201 0.0031,-0.0647054 0.0328,-0.18718781 0.06615,-0.2723348 0.02921,-0.0745487 0.04467,-0.11190025 0.05994,-0.11265463 z m -1.059367,0.2594157 c 0.0292,-0.001097 0.05604,0.00643 0.07545,0.0258382 0.02604,0.0260313 0.0068,0.0962441 -0.04237,0.15554605 -0.116129,0.13992561 -0.230477,0.13785829 -0.230477,-0.004134 0,-0.0904816 0.109804,-0.17395867 0.197404,-0.17725014 z"
             style="fill:#a19e9d;stroke-width:0.0803439"
             id="path877" />
        </g>
        <g
           id="g1115">
          <path
             id="path1098"
             d="m -17.255805,-0.86722341 c -0.05506,-0.14349219 -0.05941,-0.14327739 -0.117821,0.00582 -0.03335,0.085147 -0.06319,0.2077539 -0.06629,0.2724593 -0.0048,0.1005188 0.01233,0.099671 0.117821,-0.00582 0.07661,-0.076614 0.101771,-0.1800071 0.06629,-0.2724593 z"
             style="fill:#a8594a;stroke-width:0.0803439" />
          <path
             id="path1096"
             d="m -18.335284,-0.53874831 c 0.06432,-0.077496 0.06743,-0.1298361 0.0098,-0.1654291 -0.112189,-0.069336 -0.244933,0.019013 -0.244933,0.1630179 0,0.1475177 0.1137,0.1486839 0.235095,0.00241 z"
             style="fill:#a8594a;stroke-width:0.0803439" />
          <path
             id="path1094"
             d="m -18.987413,-0.06576351 c -0.02315,-0.023153 -0.336494,-0.045908 -0.696312,-0.050566 -0.359819,-0.00466 -0.654216,-0.019573 -0.654216,-0.033145 0,-0.056728 2.027596,-0.6718981 2.731687,-0.8287896 1.230692,-0.27423329 2.102575,-0.42438939 2.155708,-0.37125689 0.02721,0.027205 -0.0038,0.1416902 -0.06891,0.2544106 -0.10099,0.17484619 -0.271774,0.24422769 -1.162845,0.47240759 -0.574457,0.1471038 -1.279473,0.3417892 -1.566702,0.4326344 -0.54753,0.1731736 -0.669078,0.193635 -0.738409,0.1243042 z"
             style="fill:#a8594a;stroke-width:0.0803439" />
          <path
             id="path1092"
             d="m -13.519351,-0.09699851 c -0.821514,-0.7551772 -1.179545,-0.94163249 -1.641656,-0.85494 -0.302074,0.056669 -0.319952,0.035771 -0.185047,-0.21630229 0.08805,-0.1645152 0.09439,-0.1651326 0.200859,-0.019534 0.10532,0.1440324 0.10994,0.1429526 0.10994,-0.025692 0,-0.1293263 0.04798,-0.1757525 0.180773,-0.1749465 0.298127,0.00181 0.542321,0.091547 0.542321,0.1992952 0,0.1801214 0.226172,0.31367659 0.352981,0.20843539 0.08898,-0.073846 0.247915,0.00954 0.774584,0.4063999 0.364449,0.2746204 0.67918,0.562584 0.699404,0.6399189 0.02022,0.077335 0.08165,0.123388 0.136496,0.1023403 0.138787,-0.053257 0.299442,0.1623196 0.238777,0.3204074 -0.03388,0.088299 -0.145106,0.1299398 -0.342846,0.1283587 -0.255038,-0.00204 -0.392256,-0.093863 -1.066586,-0.713741 z"
             style="fill:#a8594a;stroke-width:0.0803439" />
          <path
             id="path1059"
             d="m -15.35663,-1.0633939 c 0,-0.08577 0.03615,-0.1782906 0.08034,-0.205601 0.04557,-0.028163 0.08034,0.039337 0.08034,0.1559458 0,0.11308049 -0.03615,0.20560099 -0.08034,0.20560099 -0.04419,0 -0.08034,-0.070176 -0.08034,-0.15594579 z"
             style="fill:#656960;stroke-width:0.0803439" />
          <path
             id="path1057"
             d="m -17.209103,-0.57274051 c 0.09373,-0.066425 0.09791,-0.1217563 0.02181,-0.2887821 -0.05178,-0.1136372 -0.0858,-0.20661299 -0.07562,-0.20661299 0.01018,0 0.398004,-0.072309 0.861814,-0.1606875 0.46381,-0.088378 0.852401,-0.1606874 0.863536,-0.1606874 0.01114,0 0.02024,0.065078 0.02024,0.1446187 0,0.2086908 -0.159408,0.33744369 -0.417788,0.33744369 -0.123729,0 -0.224962,0.032235 -0.224962,0.071634 0,0.1087382 -0.43271,0.1969383 -0.46665,0.095118 -0.01584,-0.047525 -0.06581,-0.086408 -0.111047,-0.086408 -0.04524,0 -0.06143,0.054232 -0.036,0.1205156 0.03104,0.080884 -0.0036,0.1205155 -0.105349,0.1205155 -0.08338,0 -0.217822,0.021488 -0.298768,0.047751 -0.117305,0.038061 -0.123642,0.031076 -0.03122,-0.034418 z"
             style="fill:#656960;stroke-width:0.0803439" />
          <path
             id="path1055"
             d="m -19.355832,-0.08297281 c -0.239495,-0.016713 -0.403453,-0.062675 -0.376891,-0.1056535 0.06461,-0.1045492 -0.07097,-0.096122 -0.178164,0.011074 -0.04793,0.04793 -0.172664,0.07424 -0.277186,0.058467 -0.143305,-0.021626 -0.06783,-0.070966 0.306888,-0.2006306 0.384001,-0.1328747 0.487033,-0.1461613 0.453381,-0.058466 -0.03065,0.079866 0.0185,0.1134845 0.165907,0.1134845 0.219094,0 0.264663,-0.073342 0.12953,-0.2084756 -0.05301,-0.053005 0.02818,-0.1087806 0.241031,-0.165594 0.287335,-0.076694 0.320957,-0.070502 0.320957,0.059115 0,0.2071363 0.126804,0.2570159 0.275464,0.1083561 0.145423,-0.1454225 0.100758,-0.2722288 -0.09943,-0.282297 -0.138649,-0.00697 0.663692,-0.2246049 0.850867,-0.2307942 0.06836,-0.00226 0.09653,0.091907 0.08384,0.280276 -0.01895,0.2814155 -0.0243,0.2852637 -0.669499,0.4820623 -0.357716,0.1091103 -0.684683,0.1916943 -0.726591,0.1835202 -0.04191,-0.00817 -0.266956,-0.028174 -0.500104,-0.044443 z"
             style="fill:#656960;stroke-width:0.0803439" />
          <path
             id="path1053"
             d="m -12.946318,-0.28005441 c 0,-0.094678 -0.222511,-0.07961 -0.283581,0.019203 -0.02862,0.046305 -0.02817,0.1457305 9.78e-4,0.2209452 0.04854,0.1251831 0.06274,0.1235582 0.167807,-0.019203 0.06313,-0.085777 0.114778,-0.185202 0.114778,-0.2209452 z"
             style="fill:#656960;stroke-width:0.0803439" />
          <path
             id="path1051"
             d="m -13.497602,-0.08076061 c -0.522948,-0.4844426 -0.865704,-0.7356665 -1.124812,-0.8244353 -0.288571,-0.098862 -0.374109,-0.16791429 -0.379048,-0.30599419 -0.0051,-0.1431126 0.03788,-0.1783204 0.217777,-0.1783204 0.123286,0 0.270776,0.057638 0.327754,0.1280834 0.05698,0.070446 0.193985,0.2187345 0.304457,0.32953039 0.164092,0.1645724 0.205615,0.1778939 0.226837,0.072776 0.0417,-0.20653549 0.169143,-0.15534119 0.78215,0.3141848 0.441032,0.3378029 0.590252,0.5031755 0.629044,0.6971366 0.04618,0.2308892 0.06041,0.2412194 0.154679,0.1122952 0.09025,-0.1234271 0.116578,-0.1266161 0.201411,-0.024398 0.167141,0.2013931 0.02802,0.379147 -0.295412,0.3774442 -0.255491,-0.00134 -0.388295,-0.090103 -1.044837,-0.6983027 z"
             style="fill:#656960;stroke-width:0.0803439" />
          <path
             id="path987"
             d="m -15.35663,-1.0633938 c 0,-0.090986 0.03615,-0.1654291 0.08034,-0.1654291 0.04419,0 0.08034,0.052098 0.08034,0.115774 0,0.063676 -0.03615,0.13811869 -0.08034,0.16542899 -0.04419,0.02731 -0.08034,-0.024788 -0.08034,-0.11577389 z"
             style="fill:#4f3533;stroke-width:0.0803439" />
          <path
             id="path985"
             d="m -17.224621,-0.55893951 c 0.129476,-0.052245 0.130057,-0.320714 8.69e-4,-0.400558 -0.08776,-0.054237 1.182269,-0.33456119 1.565835,-0.34561659 0.170181,-0.0049 0.182181,0.1265338 0.02583,0.2828894 -0.130366,0.13036489 -0.367286,0.15420279 -0.367286,0.036955 0,-0.042802 -0.05423,-0.057011 -0.120516,-0.031576 -0.06628,0.025435 -0.120515,0.09661 -0.120515,0.15816589 0,0.1391621 -0.133021,0.1472998 -0.187822,0.01149 -0.02421,-0.059996 -0.04308,-0.043822 -0.04687,0.040172 -0.0035,0.077331 -0.02947,0.1406016 -0.05774,0.1406016 -0.02827,0 -0.09815,-0.063271 -0.155279,-0.1406016 -0.08858,-0.1198997 -0.119461,-0.1240791 -0.209716,-0.028385 -0.07557,0.080119 -0.07711,0.095999 -0.0054,0.055516 0.06284,-0.035481 0.100429,-0.00661 0.100429,0.077153 0,0.084674 -0.04333,0.1172246 -0.117942,0.088594 -0.06487,-0.024892 -0.139312,-0.010683 -0.165429,0.031576 -0.02612,0.042259 -0.09055,0.073981 -0.143175,0.070492 -0.06899,-0.00457 -0.06767,-0.017647 0.0047,-0.046867 z"
             style="fill:#4f3533;stroke-width:0.0803439" />
          <path
             id="path983"
             d="m -17.72677,-0.50572951 c -0.02731,-0.044189 -0.0053,-0.080344 0.04882,-0.080344 0.05416,0 0.08183,-0.016643 0.06149,-0.036985 -0.02034,-0.020342 -0.11981,-0.015326 -0.221041,0.011147 -0.13777,0.036027 -0.157093,0.065224 -0.07683,0.1160986 0.146699,0.092991 0.24786,0.087643 0.187565,-0.00992 z"
             style="fill:#4f3533;stroke-width:0.0803439" />
          <path
             id="path981"
             d="m -18.289176,-0.28548831 c 0.164411,-0.068024 0.243178,-0.1582971 0.247785,-0.2839786 0.0045,-0.122224 -0.02933,-0.1704066 -0.10043,-0.1431231 -0.05895,0.022622 -0.107183,0.010133 -0.107183,-0.027751 0,-0.037885 0.129108,-0.093102 0.286909,-0.1227049 0.157799,-0.029603 0.329534,-0.070155 0.381632,-0.090114 0.06138,-0.023518 0.0956,0.062974 0.09722,0.2457421 0.0015,0.1709473 -0.03805,0.2867791 -0.10043,0.2940839 -0.05661,0.00663 -0.148118,0.015667 -0.203354,0.020086 -0.05524,0.00442 -0.118507,0.030608 -0.140601,0.058198 -0.02209,0.02759 -0.166713,0.072467 -0.321375,0.099726 -0.281203,0.049562 -0.281203,0.049562 -0.04017,-0.050164 z"
             style="fill:#4f3533;stroke-width:0.0803439" />
          <path
             id="path979"
             d="m -19.374518,-0.16357691 c 0.154275,-0.018618 0.307379,-0.076102 0.34023,-0.1277435 0.03918,-0.06159 0.06015,-0.04552 0.06096,0.046708 9.78e-4,0.1140368 -0.06328,0.1381722 -0.34023,0.1277436 -0.325432,-0.012254 -0.328293,-0.014447 -0.06096,-0.0467081 z"
             style="fill:#4f3533;stroke-width:0.0803439" />
          <path
             id="path975"
             d="m -13.180942,0.17022909 c -0.323326,-0.303562 -0.464305,-0.4921137 -0.435524,-0.582492 0.02934,-0.092127 0.02046,-0.1031591 -0.02859,-0.035518 -0.05317,0.07332 -0.12288,0.050152 -0.275823,-0.091665 -0.275296,-0.2552679 -0.662176,-0.4483438 -0.898381,-0.4483438 -0.164345,0 -0.187767,-0.031077 -0.154518,-0.20501149 0.03499,-0.1830241 0.06611,-0.1991752 0.290148,-0.1505937 0.257977,0.05594 0.413175,0.1981805 0.298022,0.273141 -0.03573,0.023261 0.05656,0.10099069 0.2051,0.17273299 0.219261,0.1059006 0.270069,0.1096795 0.270069,0.020086 0,-0.17096639 0.106397,-0.13416519 0.515731,0.1783845 0.337356,0.257591 0.363542,0.2994205 0.242738,0.3877545 -0.09717,0.071051 -0.118401,0.1526095 -0.07518,0.2887759 0.05998,0.1889746 0.06077,0.1887258 0.19062,-0.060086 0.126832,-0.243025 0.135086,-0.2460234 0.302316,-0.1098253 0.126297,0.1028595 0.152271,0.1751408 0.09787,0.2723494 -0.05326,0.095176 -0.02938,0.1770081 0.08508,0.2914659 0.155069,0.1550693 0.160374,0.1552396 0.207532,0.00666 0.0287,-0.090428 0.09516,-0.1345302 0.163326,-0.1083745 0.204823,0.078598 -0.01642,0.3494156 -0.285458,0.3494156 -0.177095,0 -0.357819,-0.1134415 -0.715073,-0.4488557 z"
             style="fill:#4f3533;stroke-width:0.0803439" />
        </g>
      </g>
    </g>
    <path
       d="M 3.2693289,2.5083405 7.4130001,8.5050299 V 14.89535 L 9.4619293,13.02244 V 8.5044271 L 13.605599,2.5083405 Z"
       style="fill:#333333;stroke-width:0.447102;stroke-linecap:round;stroke-linejoin:round"
       id="rect838" />
    <path
       d="M 15.654953,5.3334192 C 15.535316,5.3178122 15.353352,5.3783869 15.040202,5.506318 14.797506,5.605465 13.995699,5.9178271 13.25882,6.2002416 11.919038,6.7137224 11.919479,6.7136761 10.923232,6.6030901 10.375294,6.5422683 9.5846565,6.4851636 9.166884,6.4761809 8.5149234,6.4621626 8.4224755,6.4522932 8.4269703,6.3533473 l -0.6718018,0.061708 c 0.015667,0.078325 -0.084795,0.1096283 -0.2782682,0.1682415 -0.2246156,0.068048 -0.4254984,0.1681986 -0.4465097,0.2229637 -0.021011,0.054765 -0.090877,0.1001306 -0.1548519,0.1001306 -0.063975,0 -0.1547853,0.03834 -0.2020065,0.085576 -0.091197,0.09122 -0.1721612,0.098585 -0.7579601,0.065201 C 5.5940309,7.038843 5.4950638,6.9952271 5.1651795,6.7265059 4.563644,6.2364984 4.1148319,6.0534324 3.3098652,5.9697101 3.0715645,5.9449248 2.9015885,5.9024961 2.9320494,5.8748192 c 0.003,-0.00275 0.011108,-0.00638 0.015136,-0.00932 L 1.2822343,5.7519856 c -0.029126,0.013863 -0.061872,0.028727 -0.086158,0.041915 -0.072919,0.039591 -0.1870896,0.088747 -0.2538176,0.1094447 -0.1769011,0.054868 -0.084401,0.5783105 0.1321482,0.7486459 0.1042615,0.082011 0.2201886,0.3257865 0.3353188,0.7032381 0.2620852,0.859243 0.6194775,1.520976 1.05835,1.9601016 0.564516,0.5648421 1.1939305,0.8271211 1.7394663,0.7247781 0.2347787,-0.044045 0.8068606,-0.3746683 0.8068606,-0.466304 0,-0.02745 0.088567,-0.182719 0.1967669,-0.3452154 0.1081987,-0.162496 0.2150961,-0.372413 0.2380998,-0.4668848 0.023004,-0.094472 0.083953,-0.3577467 0.1350588,-0.5844791 0.076503,-0.3394095 0.119912,-0.416362 0.2462497,-0.4348668 0.2190238,-0.03208 0.449115,0.1426383 0.5897189,0.4470918 0.4278176,0.9263705 0.5488871,1.1483182 0.7911428,1.4547949 0.3438377,0.4349874 0.6522792,0.6699234 1.1509121,0.8749734 0.9010724,0.370542 1.9611684,0.0587 2.4531824,-0.7207035 0.226487,-0.3587799 0.447302,-1.0032702 0.544311,-1.5904361 0.09904,-0.5994853 0.0033,-0.5295837 1.615468,-1.1782731 0.543056,-0.2185137 1.345232,-0.5834088 1.782545,-0.8103538 0.437314,-0.226945 0.816172,-0.4127446 0.842372,-0.4127446 0.0262,0 0.08511,0.2089003 0.130403,0.4639739 0.106175,0.5979724 0.205391,0.9179429 0.321346,1.0338997 0.107595,0.1075882 0.127232,0.070835 0.185125,-0.3452153 C 16.270742,6.7175885 16.207893,6.4696555 15.896546,5.6180908 15.831741,5.440854 15.77459,5.3490264 15.654953,5.3334192 Z M 2.1123813,6.3125966 3.1293984,6.3451971 4.01485,6.3673189 4.2581889,6.5629215 4.9870415,6.9384089 5.2816099,7.4425513 5.2623988,8.1964366 5.2740419,8.6988327 5.0382707,9.2361578 4.8024999,9.7391359 3.9170483,9.920767 2.598477,8.9887437 2.2654869,8.422893 1.9132856,7.7825274 1.8498313,6.8045142 Z M 7.487379,6.6712015 10.051752,6.8970761 10.961072,7.476316 10.847553,8.6790393 10.372517,9.7723186 9.6489045,10.318958 8.6260659,10.352141 8.3984449,10.144313 7.3354375,9.218111 6.7241793,7.6730829 6.9727578,7.0391208 Z"
       style="fill:#dda064;stroke-width:0.068707"
       id="path879-1" />
    <path
       d="M 15.654953,5.3334192 C 15.535315,5.3178122 15.353352,5.3783869 15.040202,5.506318 14.797506,5.605465 13.995699,5.9178271 13.25882,6.2002416 11.919038,6.7137224 11.919479,6.7136761 10.923232,6.6030901 10.375294,6.5422686 9.5846575,6.4851636 9.166884,6.4761809 8.6243822,6.4645149 8.4701028,6.4575331 8.4368668,6.398173 L 7.7569148,6.439505 C 7.7481955,6.5002738 7.6506796,6.5311126 7.4803933,6.5827143 7.1330286,6.6879761 7.0132337,6.7998295 7.0926807,6.9535447 l 0.3946983,-0.2823432 2.564373,0.2258746 0.90932,0.5792399 -0.06753,0.7137167 c 0.0027,9.747e-4 0.0042,6.513e-4 0.007,0.00175 0.209044,0.080218 0.357209,0.27902 0.318436,0.4272986 -0.05615,0.2147084 -0.258814,0.1680601 -0.365591,-0.00233 l -0.0059,0.06229 L 10.372479,9.7723152 9.6489045,10.318958 8.6260659,10.352141 8.3984449,10.144313 7.3354375,9.218111 6.7241793,7.6730829 6.8487596,7.3546465 c -0.00248,-0.00158 -0.00451,-0.00187 -0.00698,-0.00349 C 6.695014,7.2549901 6.678051,7.2130529 6.738733,7.0996645 6.8265264,6.9356244 6.7821802,6.8657022 6.6735322,6.9966238 6.6158347,7.0661415 6.4600747,7.0817203 6.0651848,7.0583317 5.5582483,7.0283062 5.5172696,7.0129268 5.1599403,6.7218487 4.5641725,6.2365389 4.112595,6.0532008 3.3098652,5.9697101 3.0715647,5.9449248 2.9015885,5.9024961 2.9320494,5.8748192 c 0.00188,-0.00169 0.020448,-0.0087 0.02445,-0.011062 L 1.7322368,5.5790869 c -0.2365554,0.08138 -0.4284055,0.1563092 -0.5361609,0.2148135 -0.072919,0.039591 -0.1870896,0.088747 -0.2538177,0.1094447 -0.1013708,0.03144 -0.1138615,0.085818 -0.075098,0.331244 0.02639,0.1670842 0.1020344,0.3328545 0.1752274,0.3848014 0.1511059,0.1072491 0.3677793,0.5641846 0.4278808,0.9023338 0.1132172,0.6369764 0.9992017,2.021286 1.2102913,1.8908256 0.038294,-0.023667 0.06535,-0.017762 0.059962,0.01339 -0.027092,0.155931 0.036443,0.2218926 0.3917876,0.4016831 0.528979,0.267639 0.996893,0.297114 1.4012369,0.089069 C 4.6457751,9.8589476 4.7417443,9.7925828 4.7984248,9.7397181 L 3.9170483,9.920767 2.598477,8.9887437 2.2654869,8.422893 1.9132856,7.7825274 c 0.091363,0.170704 0.086658,0.1795374 -0.050647,0.092562 -0.051839,-0.032839 -0.080626,-0.1016007 -0.063454,-0.1531058 0.010871,-0.032611 0.025113,-0.044829 0.043661,-0.034929 0.018548,0.0099 0.041665,0.041703 0.07044,0.095473 l -0.063454,-0.9780132 0.26255,-0.4919176 1.0170171,0.032601 0.8854516,0.022122 0.2433389,0.1956026 0.7288526,0.3754874 0.2945685,0.5041424 -0.019211,0.7538853 0.011643,0.5023961 -0.022704,0.051811 c 0.013389,-0.013442 0.021441,-0.025545 0.03784,-0.039586 0.075579,-0.064711 0.1373877,-0.1590589 0.1373877,-0.2095743 0,-0.050514 0.028615,-0.074508 0.063454,-0.052975 C 5.524859,8.4700423 5.579012,8.3253791 5.6105252,8.12658 5.6587732,7.8222422 5.6927632,7.7612852 5.8259208,7.7423604 6.0497257,7.7105534 6.2788672,7.8832122 6.4202969,8.1894522 6.8481158,9.1158224 6.969184,9.3377706 7.2114398,9.644247 c 0.3438374,0.434988 0.6522791,0.669923 1.150912,0.874973 0.9010732,0.370542 1.9611682,0.0587 2.4531822,-0.7207031 0.225633,-0.3574278 0.446245,-1.0017064 0.544893,-1.590436 0.08305,-0.4956483 0.09463,-0.51641 0.356858,-0.6514267 0.148889,-0.076658 0.579752,-0.2585984 0.957639,-0.4045948 0.377887,-0.1459954 1.047967,-0.4341604 1.489141,-0.6409478 0.624312,-0.2926269 0.794453,-0.4009536 0.766692,-0.4884245 -0.02866,-0.090326 -0.0222,-0.093884 0.0326,-0.016882 0.05692,0.079955 0.107245,0.071732 0.306211,-0.051229 0.131118,-0.081035 0.269516,-0.147866 0.307376,-0.147866 0.03786,0 0.105488,0.1934477 0.149612,0.4296272 0.04414,0.2361791 0.09586,0.5124065 0.115848,0.6141691 0.0245,0.1246833 0.06871,0.1727457 0.13506,0.1472839 0.05416,-0.02078 0.09838,-0.00341 0.09838,0.038423 0,0.041831 -0.03091,0.076262 -0.0687,0.076262 -0.03779,0 -0.0687,0.030904 -0.0687,0.068694 0,0.037788 0.0482,0.068694 0.107111,0.068694 0.06347,0 0.08727,0.032169 0.05822,0.079173 -0.0281,0.045471 -0.0193,0.060967 0.02095,0.036093 0.03862,-0.023866 0.08625,-0.186178 0.10595,-0.3609334 0.03465,-0.3072448 -0.01424,-0.5111625 -0.334141,-1.3861029 -0.0648,-0.1772367 -0.121956,-0.2690642 -0.241593,-0.2846716 z m -1.081054,0.5384895 c 0.06685,2.226e-4 0.128073,0.066114 0.128073,0.1752272 0,0.108441 -0.03894,0.1723166 -0.105364,0.1723166 -0.120323,0 -0.203568,-0.1642013 -0.137389,-0.2712822 0.03225,-0.052197 0.07458,-0.076396 0.114685,-0.076262 z M 1.5995064,7.1811657 c 0.099004,0 0.2543998,0.1338468 0.2544,0.2194708 0,0.059869 -0.1218968,0.064772 -0.2578929,0.00989 C 1.4824901,7.3647245 1.4853443,7.1811601 1.5995035,7.1811601 Z M 6.1135032,7.387247 c 0.037789,0 0.068694,0.046358 0.068694,0.1030403 0,0.056684 -0.030912,0.1030404 -0.068694,0.1030404 -0.037789,0 -0.068694,-0.046358 -0.068694,-0.1030404 0,-0.056684 0.030904,-0.1030403 0.068694,-0.1030403 z M 5.1698371,8.9363502 5.0586463,9.1895856 c 0.078322,-0.030353 0.1689434,-0.082201 0.2148135,-0.1280733 0.079522,-0.079523 0.077376,-0.093726 -0.013971,-0.093726 -0.045775,0 -0.074326,-0.012161 -0.089652,-0.031436 z m 2.1265964,0.3428866 c 0.039304,-7.013e-4 0.088391,0.024748 0.1234161,0.066947 0.094105,0.113389 0.090646,0.1150022 -0.098966,0.04075 -0.080411,-0.03149 -0.1044745,-0.070292 -0.059962,-0.097801 0.010105,-0.00625 0.02241,-0.00965 0.035512,-0.00989 z M 4.8543112,9.6285273 4.8048284,9.7344786 c 0.025848,-0.024959 0.045077,-0.047282 0.046572,-0.06229 8.121e-4,-0.00814 0.00195,-0.032 0.00291,-0.043661 z"
       style="fill:#a19e9d;stroke-width:0.068707"
       id="path877-5" />
    <path
       id="path1090"
       d="m 15.996267,6.9491973 c -0.0632,-0.046215 -0.151402,-0.2739722 -0.198188,-0.5117822 -0.08241,-0.4188481 -0.05779,-0.5827503 0.06818,-0.4540832 0.06173,0.063059 0.298928,0.9941004 0.262527,1.0305013 -0.01025,0.010251 -0.06989,-0.018834 -0.132522,-0.064636 z"
       style="fill:#a8594a;stroke-width:0.0687069" />
    <path
       id="path1088"
       d="m 1.8537148,7.4009813 c 0,-0.085624 -0.1552125,-0.2198617 -0.2542153,-0.2198617 -0.1141947,0 -0.116944,0.1835221 -0.00342,0.2293239 0.1359952,0.054875 0.2576511,0.050408 0.2576511,-0.00946 z"
       style="fill:#a8594a;stroke-width:0.0687069" />
    <path
       id="path1086"
       d="m 6.1822405,7.4903001 c 0,-0.056684 -0.030914,-0.1030607 -0.068704,-0.1030607 -0.037789,0 -0.068704,0.046377 -0.068704,0.1030607 0,0.056684 0.030914,0.1030606 0.068704,0.1030606 0.037789,0 0.068704,-0.046377 0.068704,-0.1030606 z"
       style="fill:#a8594a;stroke-width:0.0687069" />
    <path
       id="path1084"
       d="M 1.9133263,7.7824868 C 1.8557741,7.674946 1.8212155,7.656504 1.7994745,7.7217263 c -0.017172,0.051505 0.011198,0.1205154 0.063043,0.1533551 0.1373027,0.086976 0.1421678,0.078109 0.050805,-0.092594 z"
       style="fill:#a8594a;stroke-width:0.0687069" />
    <path
       id="path1082"
       d="m 7.4195898,9.3461389 c -0.0467,-0.056267 -0.1179967,-0.081851 -0.1584425,-0.056855 -0.044511,0.027509 -0.021097,0.065985 0.059314,0.097475 0.1896121,0.074252 0.193232,0.072769 0.099128,-0.04062 z"
       style="fill:#a8594a;stroke-width:0.0687069" />
    <path
       d="m 15.353398,5.4411171 c -0.02419,-0.00858 -0.107121,0.013082 -0.215977,0.059962 -0.145136,0.062504 -0.958894,0.3762025 -1.808743,0.6968344 C 11.7835,6.7808797 11.783391,6.7808275 10.820773,6.657812 9.5188065,6.4914306 7.6913425,6.4853541 7.333109,6.6461692 7.1253643,6.7394278 7.0480758,6.8357608 7.0955915,6.9512159 l 0.3917875,-0.2800144 2.564373,0.2258746 0.90932,0.5792399 -0.06695,0.7113883 c 0.0084,0.00157 0.01406,3.463e-4 0.02387,0.00291 0.07296,0.01908 0.149665,0.078025 0.169987,0.1309838 0.06787,0.1768701 0.172044,0.099171 0.215979,-0.1612558 0.09319,-0.5523473 0.0075,-0.4891437 1.439658,-1.0705753 0.415677,-0.1687691 0.977391,-0.4072741 1.248132,-0.5297572 0.488485,-0.2209912 0.491847,-0.2243277 0.454659,-0.4534953 -0.03413,-0.2103585 -0.02208,-0.231114 0.133895,-0.231114 0.14929,0 0.166636,0.024468 0.136805,0.1891991 -0.01882,0.1039191 -0.0087,0.1649569 0.0227,0.1356411 0.03133,-0.029315 0.06764,-0.1210921 0.08033,-0.204335 0.01271,-0.083243 0.05786,-0.1832021 0.100126,-0.2217992 0.05498,-0.050205 0.06462,-0.035953 0.03435,0.050065 -0.03392,0.096396 -0.0054,0.1187423 0.144373,0.1123556 0.116291,-0.00496 0.141223,-0.020024 0.06636,-0.039586 -0.133518,-0.03489 -0.157266,-0.1276028 -0.05006,-0.1938564 0.03841,-0.023736 0.05201,-0.071937 0.03027,-0.1071162 -0.02173,-0.035177 0.0068,-0.064037 0.06346,-0.064037 0.05668,0 0.123308,-0.032458 0.147866,-0.072187 0.0061,-0.00994 0.0046,-0.015766 -0.0035,-0.018628 z M 1.3049381,5.8765659 c -0.4130755,-0.00217 -0.413327,0.055491 -0.413327,0.2852539 0,0.257669 0.031421,0.3296547 0.1973491,0.452331 0.1500952,0.11097 0.2265211,0.2579088 0.3190186,0.6141691 0.2625213,1.0111281 1.1002923,2.4092047 1.2824781,2.139986 0.045657,-0.06749 0.056692,-0.057018 0.041915,0.040751 -0.027164,0.1796826 0.4900218,0.4974313 0.9512342,0.5844795 0.3747196,0.070723 0.7642829,0.00348 1.0210927,-0.1763917 0.042232,-0.02958 0.070451,-0.052713 0.092561,-0.076844 L 3.9170483,9.920767 2.598477,8.9887437 2.2654869,8.422893 1.9132856,7.7825274 1.8498313,6.8045142 l 0.26255,-0.4919176 1.0170171,0.032601 0.8854516,0.022122 0.2433389,0.1956026 0.7288526,0.3754874 0.2945684,0.5041424 -0.019211,0.7538853 0.011643,0.5023961 -0.015136,0.034347 c 0.00661,-0.00704 0.01024,-0.01324 0.017465,-0.020376 C 5.3448738,8.645202 5.4403421,8.4503156 5.4888555,8.2802663 5.6190912,7.8237999 5.6611289,7.767115 5.8823892,7.7446877 c 0.2726587,-0.027638 0.4627287,0.1878077 0.7498104,0.8481935 0.2651925,0.6100365 0.5107035,0.9891703 0.8656579,1.3366181 0.2985673,0.2922537 0.8913553,0.6269667 1.2265918,0.6927597 0.7333012,0.143918 1.2435562,-0.01463 1.7912767,-0.555372 0.300491,-0.2966621 0.415307,-0.4729169 0.532087,-0.8190864 0.08189,-0.2427395 0.141385,-0.4453159 0.132147,-0.4500023 -0.0092,-0.00469 -0.101579,-0.045022 -0.205499,-0.089652 -0.05693,-0.024451 -0.09365,-0.050069 -0.122251,-0.079755 L 10.84761,8.6790383 10.372556,9.7723175 9.6489045,10.318958 8.6260659,10.352141 8.3984449,10.144313 7.3354375,9.218111 6.7241793,7.6730829 6.8493418,7.3546465 c -0.00248,-0.00158 -0.00451,-0.00187 -0.00698,-0.00349 C 6.6988697,7.2571385 6.6790564,7.2115545 6.7358224,7.1054858 6.8138068,6.9597697 6.7350594,6.9304399 6.6077491,7.0577496 c -0.045501,0.045502 -0.1958229,0.0751 -0.3341545,0.065783 -0.1475114,-0.00993 -0.2749144,0.019524 -0.3079577,0.071605 -0.04174,0.065786 -0.056261,0.05764 -0.057051,-0.031436 C 5.9077301,7.0658786 5.8452599,7.043778 5.5744315,7.043778 5.3198736,7.043778 5.2111274,7.009125 5.1110397,6.895912 4.9801572,6.747862 4.980017,6.7476164 5.1861371,6.8685508 5.3574829,6.9690802 5.3459003,6.9476473 5.1174433,6.7416417 4.9662887,6.6053416 4.7190476,6.4328419 4.567893,6.3585866 4.1266423,6.1418207 2.9383845,5.9374679 1.8707886,5.8946124 1.6260209,5.884787 1.44263,5.8772911 1.3049381,5.8765659 Z m 3.8602414,3.0702629 -0.1100259,0.250325 c 0.157421,-0.047252 0.2920224,-0.2293677 0.1630022,-0.2293677 -0.025736,0 -0.042752,-0.00808 -0.052976,-0.020957 z m -0.3242578,0.7108059 -0.028525,0.060544 c 0.011452,-0.016644 0.021986,-0.0378 0.028525,-0.060544 z"
       style="fill:#a8594a;stroke-width:0.068707"
       id="path875" />
    <path
       id="path1049"
       d="M 15.997216,6.9243262 C 15.918056,6.9065712 15.858785,6.7649579 15.79991,6.4529371 15.71757,6.0165776 15.74045,5.8549239 15.86635,5.9833319 c 0.05315,0.05421 0.290734,0.9469327 0.255867,0.9614412 -0.0065,0.00271 -0.06277,-0.00649 -0.125004,-0.020447 z"
       style="fill:#656960;stroke-width:0.0687069" />
    <path
       id="path1047"
       d="M 1.5419336,7.695262 C 1.5244716,7.639216 1.4956956,7.5469831 1.4779846,7.4903001 c -0.03802,-0.121697 -0.00496,-0.1277655 0.1741277,-0.031936 0.07309,0.039119 0.1328961,0.1131054 0.1328961,0.1644161 0,0.1343278 -0.2047766,0.1953897 -0.2430748,0.072482 z"
       style="fill:#656960;stroke-width:0.0687069" />
    <path
       id="path1045"
       d="m 1.6509836,6.0515422 c -0.045178,-0.054437 -0.1262593,-0.082047 -0.1801797,-0.061356 -0.161379,0.061928 -0.1109644,0.1603319 0.082147,0.1603319 0.1490656,0 0.1659952,-0.017092 0.098036,-0.098976 z"
       style="fill:#656960;stroke-width:0.0687069" />
    <path
       id="path1043"
       d="m 2.7325133,6.3252235 c 0.069345,-0.069347 -0.018891,-0.08663 -0.2776142,-0.054377 -0.1417077,0.017666 -0.2576503,0.0637 -0.2576503,0.1022991 0,0.069466 0.4589679,0.028375 0.5352645,-0.047921 z"
       style="fill:#656960;stroke-width:0.0687069" />
    <path
       id="path1041"
       d="m 4.2584516,6.5627588 c 0,-0.037788 -0.069568,-0.069128 -0.1545907,-0.069646 -0.085028,-5.159e-4 -0.2318852,-0.021336 -0.3263573,-0.046269 -0.1542239,-0.0407 -0.1621358,-0.033587 -0.077469,0.069646 0.101755,0.1240695 0.5584188,0.1619067 0.5584188,0.046269 z"
       style="fill:#656960;stroke-width:0.0687069" />
    <path
       id="path1039"
       d="m 13.39162,6.4728206 c -0.0041,-0.1848082 -0.0141,-0.1976601 -0.06387,-0.081829 -0.08241,0.1917652 -0.08241,0.3944625 0,0.3435337 0.03778,-0.023354 0.06653,-0.141122 0.06387,-0.2617047 z"
       style="fill:#656960;stroke-width:0.0687069" />
    <path
       id="path1037"
       d="m 12.607966,6.7637013 c 0.05148,-0.1622158 0.0078,-0.2361219 -0.100137,-0.1694143 -0.09011,0.055695 -0.09767,0.3120056 -0.0092,0.3120056 0.03525,0 0.08445,-0.064166 0.10933,-0.1425913 z"
       style="fill:#656960;stroke-width:0.0687069" />
    <path
       id="path1035"
       d="m 9.8924055,7.052119 c 0,-0.033162 -0.04362,-0.096499 -0.09694,-0.1407499 -0.107669,-0.089358 -0.217793,0.012179 -0.143531,0.1323371 0.05233,0.084662 0.240474,0.091245 0.240474,0.00842 z"
       style="fill:#656960;stroke-width:0.0687069" />
    <path
       id="path1033"
       d="m 4.9625897,7.1124129 c 0.040997,0 0.051353,-0.023188 0.023004,-0.05153 -0.02834,-0.028341 -0.078538,-0.05153 -0.1115536,-0.05153 -0.033018,0 -0.1052033,-0.061787 -0.1604238,-0.1373055 -0.055218,-0.075518 -0.1233508,-0.1143551 -0.1514009,-0.086305 -0.028049,0.028051 4.053e-4,0.1078055 0.063239,0.1772345 0.062829,0.069429 0.090984,0.1518394 0.062563,0.1831351 -0.028426,0.031295 0.00496,0.036516 0.074176,0.011601 0.069216,-0.024915 0.1593993,-0.0453 0.2003963,-0.0453 z"
       style="fill:#656960;stroke-width:0.0687069" />
    <path
       id="path1031"
       d="m 5.1516391,7.4903001 c 0,-0.056684 -0.043074,-0.1030607 -0.09571,-0.1030607 -0.052644,0 -0.1142571,-0.048337 -0.1369283,-0.1074146 -0.02267,-0.059078 -0.072013,-0.088384 -0.1096475,-0.065124 -0.090294,0.055805 0.1204125,0.3786591 0.2471267,0.3786591 0.052336,0 0.095158,-0.046377 0.095159,-0.1030598 z"
       style="fill:#656960;stroke-width:0.0687069" />
    <path
       id="path1029"
       d="M 7.0304825,8.5538204 C 6.9870491,8.3366676 6.9814221,8.3328565 6.925883,8.4829966 6.8881881,8.5848957 6.8956537,8.6759777 6.9467407,8.7375389 7.0590501,8.8728646 7.0835416,8.8191335 7.030478,8.5538205 Z"
       style="fill:#656960;stroke-width:0.0687069" />
    <path
       id="path1027"
       d="M 2.598579,8.988756 C 2.561268,8.943766 2.4866187,8.923886 2.4326984,8.944577 c -0.156597,0.060092 -0.1133506,0.1467102 0.067849,0.1358868 0.1199396,-0.00716 0.147091,-0.032562 0.098036,-0.091708 z"
       style="fill:#656960;stroke-width:0.0687069" />
    <path
       id="path1025"
       d="M 7.4481829,9.3471915 C 7.3526461,9.2013841 7.323132,9.1909235 7.240479,9.2735768 7.1184776,9.3955773 7.1163329,9.473813 7.2362888,9.4277967 c 0.05066,-0.019442 0.1356865,-0.00776 0.1889433,0.025951 0.1429708,0.090508 0.1452353,0.080014 0.022987,-0.1065563 z"
       style="fill:#656960;stroke-width:0.0687069" />
    <path
       id="path1023"
       d="m 10.785592,9.6242645 c 0,-0.054453 -0.02878,-0.1167931 -0.06395,-0.1385341 -0.08169,-0.050484 -0.163839,0.078173 -0.107809,0.1688325 0.06318,0.102227 0.171767,0.083073 0.171767,-0.030298 z"
       style="fill:#656960;stroke-width:0.0687069" />
    <path
       id="path1021"
       d="m 9.342752,10.513398 c -0.04704,-0.05668 -0.13191,-0.103061 -0.188593,-0.103061 -0.08382,0 -0.08709,0.01924 -0.01752,0.103061 0.04704,0.05668 0.131909,0.103059 0.188592,0.103059 0.08382,0 0.087091,-0.01924 0.01753,-0.103059 z"
       style="fill:#656960;stroke-width:0.0687069" />
    <path
       d="m 15.353398,5.4411171 c -0.02419,-0.00858 -0.107121,0.013082 -0.215977,0.059962 -1.399088,0.6025361 -4.28865,1.5682424 -3.813088,1.2743281 C 11.371093,6.7465082 11.04506,6.6861692 10.599556,6.64093 10.15405,6.59569 9.6731745,6.543877 9.5313095,6.5256641 9.352587,6.5027191 9.278782,6.5178741 9.290882,6.5751471 9.319302,6.7096651 9.091661,6.7179393 8.826326,6.5920291 8.6301005,6.4989135 8.4736944,6.4832018 8.0677834,6.5175137 7.3984965,6.5740892 7.0721901,6.7064529 7.1229527,6.9005688 c 0.00427,0.016321 0.015509,0.027259 0.022704,0.041915 l 0.3114506,-0.2101567 2.7139847,0.2252926 0.962296,0.5798219 -0.04482,0.4447634 c 0.03747,-0.035142 0.0749,-0.072934 0.109442,-0.1141017 0.126815,-0.1511549 0.258605,-0.2747752 0.293404,-0.2747752 0.0348,0 0.160937,-0.044247 0.280014,-0.098383 0.119077,-0.054138 0.556516,-0.2362543 0.972192,-0.4045948 0.711775,-0.2882544 1.690421,-0.7206714 1.74063,-0.7690211 0.01252,-0.012045 -0.01466,-0.091827 -0.06054,-0.1775559 -0.07223,-0.1349786 -0.06306,-0.1724892 0.07044,-0.2805966 0.223334,-0.1808525 0.265742,-0.156354 0.227621,0.1327302 -0.03525,0.2672858 0.05759,0.2673037 0.09838,0 0.02956,-0.1937049 0.156599,-0.3302235 0.156599,-0.1682415 0,0.077684 0.05145,0.1141678 0.154269,0.1088623 0.116325,-0.00599 0.12483,-0.015941 0.03435,-0.039586 -0.133506,-0.03489 -0.157266,-0.1276028 -0.05006,-0.1938564 0.03841,-0.023736 0.05201,-0.071937 0.03027,-0.1071161 -0.02173,-0.035177 0.0068,-0.064037 0.06346,-0.064037 0.05668,0 0.123308,-0.032458 0.147866,-0.072187 0.0061,-0.00994 0.0046,-0.015766 -0.0035,-0.018628 z M 1.3049381,5.8852979 c -0.4130755,2.459e-4 -0.413327,0.057566 -0.413327,0.2870004 0,0.2503196 0.031475,0.3260831 0.1717345,0.4179844 0.094275,0.061771 0.2151726,0.2176704 0.2689537,0.3463796 0.073695,0.176377 0.1455823,0.2399324 0.2922395,0.2567284 0.1589796,0.018207 0.1993049,0.059796 0.2183065,0.2282031 0.010635,0.094227 0.036535,0.184867 0.06229,0.2380998 l -0.055304,-0.8551794 0.26255,-0.4919176 1.0170171,0.032601 0.8854516,0.022122 0.2433389,0.1956026 0.7288526,0.3754874 0.2945684,0.5041424 -0.019211,0.7538853 0.00815,0.3393939 C 5.3581019,8.5686982 5.4259101,8.4821552 5.4906019,8.2633845 5.6208146,7.8230388 5.6635363,7.7668721 5.8823892,7.7446884 6.1550479,7.7170504 6.3451179,7.9324961 6.6321996,8.5928819 6.8973921,9.2029184 7.1429031,9.5820522 7.4978575,9.9295 c 0.2985673,0.292254 0.8913553,0.626967 1.2265918,0.69276 0.6287817,0.123405 1.1483722,0.0023 1.6247817,-0.377817 0.167374,-0.133553 0.225749,-0.225249 0.193856,-0.3044644 -0.01783,-0.044275 -0.0269,-0.069362 -0.03959,-0.1018766 L 9.7443765,10.380085 8.6621591,10.412685 8.421731,10.204857 7.2964335,9.2792368 6.6502461,7.734209 6.795784,7.3825898 C 6.6848486,7.3018051 6.5943596,7.2155161 6.5943596,7.1875692 c 0,-0.029088 -0.1378294,-0.058232 -0.3067931,-0.064619 -0.2411062,-0.00912 -0.2991164,0.00965 -0.2695358,0.086741 0.020731,0.054026 0.081295,0.1150111 0.1350589,0.1356411 0.1263052,0.048469 0.1278063,0.3166901 0.00175,0.3166901 -0.1333561,0 -0.4060154,-0.5291737 -0.2957324,-0.5740006 C 5.9044272,7.0695998 5.7844342,7.0520028 5.5919,7.0490178 5.3241549,7.0448686 5.2111465,7.0091456 5.1110397,6.895912 4.9801559,6.747862 4.980017,6.7476166 5.1861371,6.8685508 5.3574829,6.9690802 5.3459003,6.9476473 5.1174433,6.7416417 4.9662878,6.6053416 4.7190478,6.4328419 4.567893,6.3585866 4.1145076,6.1358598 2.9389981,5.9361734 1.8707886,5.899852 1.6260209,5.8915292 1.44263,5.8852162 1.3049381,5.8852979 Z M 1.717683,7.8640283 c -0.040535,-0.00155 -0.069859,0.020933 -0.069859,0.074515 0,0.038732 0.1052214,0.2785376 0.2340248,0.5326681 0.2284231,0.4506841 0.6450304,0.9356078 0.7690211,0.8953478 0.034031,-0.011051 0.138971,0.037794 0.2334424,0.1082799 0.1196116,0.089252 0.132417,0.1147362 0.041915,0.08383 -0.2558202,-0.087363 0.043904,0.1791748 0.3580228,0.3184367 0.4084123,0.1810672 0.9461291,0.1847922 1.2853888,0.00873 C 4.6806686,9.8282118 4.7402053,9.7899638 4.7768845,9.744373 L 3.9170483,9.920767 2.598477,8.9887437 2.2654869,8.422893 2.0180729,7.9734728 c 0.027162,0.1232519 0.038756,0.2380997 0.011062,0.2380997 -0.022834,0 -0.070617,-0.077263 -0.1065337,-0.1717345 C 1.8831108,7.9359731 1.7852414,7.8666155 1.717683,7.8640283 Z m 9.448306,0.9378451 c -0.01731,-0.00813 -0.04713,-0.00716 -0.0879,0.00349 -0.03537,0.00925 -0.06695,0.00905 -0.09663,0.00291 l -0.428462,0.930859 c 0.0063,0.00545 0.0088,0.00676 0.01572,0.012808 0.148055,0.130028 0.151968,0.130028 0.250325,0 0.05486,-0.072532 0.151401,-0.2860913 0.214814,-0.475035 0.06341,-0.1889436 0.128575,-0.379909 0.144955,-0.4243878 0.0093,-0.025269 0.0045,-0.042511 -0.01281,-0.050647 z"
       style="fill:#656960;stroke-width:0.068707"
       id="path873" />
    <path
       id="path977"
       d="m 12.915502,6.4023451 c 0,-0.017744 0.09978,-0.067044 0.221728,-0.1095574 0.121952,-0.042513 0.191517,-0.049012 0.154591,-0.014443 -0.07824,0.073241 -0.376319,0.1714624 -0.376319,0.1240004 z"
       style="fill:#4f3533;stroke-width:0.0687069" />
    <path
       id="path973"
       d="m 11.92269,6.7766033 c 0.0359,-0.033541 0.142567,-0.081208 0.237038,-0.1059266 0.171767,-0.044942 0.171767,-0.044942 0,0.058549 -0.191432,0.1153398 -0.341985,0.1454307 -0.237038,0.047378 z"
       style="fill:#4f3533;stroke-width:0.0687069" />
    <path
       id="path971"
       d="M 1.55022,7.6864646 C 1.5282,7.6290766 1.512354,7.5305455 1.515014,7.467506 1.518864,7.375912 1.531707,7.380492 1.578894,7.490302 1.611373,7.56588 1.640115,7.587243 1.642775,7.537777 1.649015,7.4210841 1.7850181,7.50391 1.7850181,7.62442 c 0,0.1343527 -0.1879787,0.184028 -0.2347876,0.062046 z"
       style="fill:#4f3533;stroke-width:0.0687069" />
    <path
       id="path969"
       d="m 9.8924055,7.0521208 c 0,-0.033162 -0.04362,-0.096499 -0.09694,-0.1407498 -0.107669,-0.089358 -0.217793,0.012178 -0.143531,0.132337 0.05233,0.084662 0.240474,0.091244 0.240474,0.00842 z"
       style="fill:#4f3533;stroke-width:0.0687069" />
    <path
       id="path967"
       d="M 10.675997,8.0227794 C 10.590442,7.7415339 10.400331,7.4317752 10.254718,7.3363667 9.8911055,7.0981179 8.4341578,6.9662781 7.7109659,7.1061816 c -0.2645618,0.05118 -0.2920038,0.043652 -0.2920038,-0.080111 0,-0.1145954 -0.016872,-0.1226002 -0.10472,-0.049691 C 7.1945518,7.0757136 7.1666557,7.0608706 7.1334899,6.8802056 7.1157629,6.7836086 7.1752989,6.7280319 7.3697219,6.6597125 7.7972944,6.509463 8.537787,6.4857865 8.859309,6.6120845 c 0.226371,0.088921 0.309583,0.094046 0.435224,0.026805 0.1235195,-0.066106 0.3378995,-0.060086 1.046497,0.029386 0.843978,0.1065653 1.074518,0.133548 1.354927,0.1585804 0.09533,0.00851 0.120237,0.07552 0.120237,0.3234883 0,0.2824446 -0.01907,0.3194033 -0.196808,0.3813623 -0.108248,0.037734 -0.299256,0.1907162 -0.424469,0.3399597 -0.241058,0.2873228 -0.458245,0.35057 -0.51892,0.1511132 z"
       style="fill:#4f3533;stroke-width:0.0687069" />
    <path
       id="path965"
       d="M 4.9122661,9.0271561 C 5.0089821,8.7116124 5.0861664,8.6448773 5.0668509,8.8934991 5.0568022,9.0228494 5.0066908,9.1424499 4.9554855,9.1592783 4.8862512,9.1820353 4.8751774,9.1481819 4.9122661,9.0271561 Z"
       style="fill:#4f3533;stroke-width:0.0687069" />
    <path
       id="path963"
       d="m 2.7336583,6.32408 c 0.021139,-0.02114 0.00188,-0.075024 -0.042869,-0.1197397 -0.062598,-0.062599 -0.081301,-0.062335 -0.081301,0.00115 0,0.045804 -0.091609,0.082448 -0.2061201,0.082448 -0.113366,0 -0.2061202,0.034963 -0.2061202,0.077697 0,0.077001 0.4529442,0.041915 0.5364096,-0.041551 z"
       style="fill:#4f3533;stroke-width:0.0687069" />
    <path
       id="path961"
       d="M 7.0304825,8.5538223 C 6.9870491,8.3366695 6.9814221,8.3328583 6.925883,8.4829985 6.8881881,8.5848977 6.8956537,8.6759795 6.9467407,8.7375409 7.0590501,8.8728666 7.0835416,8.8191355 7.030478,8.5538224 Z"
       style="fill:#4f3533;stroke-width:0.0687069" />
    <path
       id="path959"
       d="M 7.5228649,8.5602446 C 7.4664328,8.2262056 7.4053744,8.1743479 7.2589805,8.3361117 c -0.1382881,0.1528074 -0.08201,0.3877147 0.1144152,0.4775926 0.1957744,0.089578 0.2048305,0.07422 0.1494692,-0.2534597 z"
       style="fill:#4f3533;stroke-width:0.0687069" />
    <path
       id="path957"
       d="M 2.598579,8.988756 C 2.561268,8.943766 2.4866187,8.923886 2.4326984,8.944577 c -0.156597,0.060092 -0.1133506,0.1467102 0.067849,0.1358868 0.1199396,-0.00716 0.147091,-0.032562 0.098036,-0.091708 z"
       style="fill:#4f3533;stroke-width:0.0687069" />
    <path
       id="path955"
       d="m 7.6175175,9.2170849 c 0.058733,-0.07077 0.055954,-0.1122125 -0.011271,-0.1680017 -0.068695,-0.057015 -0.092433,-0.035396 -0.1031372,0.093944 -0.015914,0.1923665 0.00496,0.2058997 0.114405,0.074058 z"
       style="fill:#4f3533;stroke-width:0.0687069" />
    <path
       id="path1538"
       d="M 8.3985344,10.144257 7.3352242,9.2183647 6.7244565,7.6731458 6.9724679,7.038967 7.4873157,6.6714682 l 2.5646283,0.2253552 0.909375,0.5795084 -0.113672,1.2027528 -0.475355,1.0934122 -0.7233665,0.5467062 -1.0230473,0.0328 z"
       style="opacity:0.654839;fill:#656960;fill-opacity:1;stroke:none;stroke-width:0.0109517;stroke-linecap:butt;stroke-linejoin:miter;stroke-miterlimit:4;stroke-dasharray:none;stroke-opacity:1" />
    <path
       id="path953"
       d="M 7.4481829,9.3471915 C 7.3526461,9.2013841 7.323132,9.1909235 7.240479,9.2735768 7.1184776,9.3955773 7.1163329,9.473813 7.2362888,9.4277967 c 0.05066,-0.019442 0.1356865,-0.00776 0.1889433,0.025951 0.1429708,0.090508 0.1452353,0.080014 0.022987,-0.1065563 z"
       style="fill:#4f3533;stroke-width:0.0687069" />
    <path
       id="path951"
       d="m 10.785592,9.6242645 c 0,-0.054453 -0.02878,-0.1167931 -0.06395,-0.1385341 -0.08169,-0.050484 -0.163839,0.078173 -0.107809,0.1688325 0.06318,0.102227 0.171767,0.083073 0.171767,-0.030298 z"
       style="fill:#4f3533;stroke-width:0.0687069" />
    <path
       id="path949"
       d="m 9.342752,10.513398 c -0.04704,-0.05668 -0.13191,-0.103061 -0.188593,-0.103061 -0.08382,0 -0.08709,0.01924 -0.01752,0.103061 0.04704,0.05668 0.131909,0.103059 0.188592,0.103059 0.08382,0 0.087091,-0.01924 0.01753,-0.103059 z"
       style="fill:#4f3533;stroke-width:0.0687069" />
    <path
       d="M 2.2656039,8.4228672 C 1.9063041,7.8699332 1.5115727,6.7590474 2.2440379,6.3771437 3.0232961,6.2340467 3.8983307,6.2973413 4.5932908,6.7053126 5.4352813,7.072517 5.3521251,8.0917235 5.1839768,8.8334533 5.1533803,9.6695789 4.072013,10.26845 3.4757749,9.6058641 2.9945864,9.3010888 2.4972143,8.9674343 2.2656039,8.4228672 Z"
       style="opacity:0.654839;fill:#656960;fill-opacity:1;stroke:none;stroke-width:0.0112653;stroke-linecap:butt;stroke-linejoin:miter;stroke-miterlimit:4;stroke-dasharray:none;stroke-opacity:1"
       id="path1369" />
    <path
       id="path871"
       d="M 8.827451,10.620847 C 8.3519632,10.539325 7.9076545,10.291741 7.4987118,9.8804281 7.0770066,9.4562793 6.8799726,9.143834 6.5625584,8.3959322 6.3423573,7.8770846 6.1891802,7.7307738 5.8661853,7.7307738 c -0.2711097,0 -0.3414723,0.087424 -0.4009085,0.4981239 -0.030666,0.2118887 -0.081052,0.326357 -0.1436635,0.326357 -0.1232063,0 -0.2501395,-0.2337284 -0.1991266,-0.3666639 0.021482,-0.055985 0.00838,-0.2128152 -0.029067,-0.348511 -0.04044,-0.1464668 -0.04245,-0.2467195 -0.00496,-0.2467195 0.034746,0 0.06317,-0.046377 0.06317,-0.1030607 0,-0.056684 -0.043074,-0.1030606 -0.09571,-0.1030606 -0.052644,0 -0.1142571,-0.048337 -0.1369274,-0.1074147 -0.02267,-0.059077 -0.072355,-0.088171 -0.1104112,-0.064652 -0.038054,0.02352 -0.069191,0.024483 -0.069191,0.00214 0,-0.022342 0.069568,-0.067448 0.1545898,-0.100233 0.1501414,-0.057896 0.1506356,-0.06117 0.017181,-0.1137649 C 4.8355849,6.9735308 4.7376305,6.9009169 4.6934846,6.8419514 4.6493415,6.7829854 4.5902673,6.7576914 4.5622174,6.785742 c -0.028049,0.028051 0.00513,0.1130265 0.07374,0.1888356 0.068609,0.075809 0.092815,0.1378347 0.053799,0.1378347 -0.039021,0 -0.1094323,-0.046377 -0.1564746,-0.1030606 C 4.4862388,6.9526697 4.4099497,6.906291 4.3637506,6.906291 c -0.046196,0 -0.1420302,-0.064123 -0.2129563,-0.1424964 -0.082249,-0.090887 -0.09544,-0.1344345 -0.036413,-0.1202367 0.050899,0.012242 0.106714,-0.016389 0.124035,-0.063624 C 4.2578547,6.5269045 4.2085802,6.493691 4.1095908,6.493112 4.0214172,6.492596 3.87925,6.4734112 3.7936639,6.4504784 3.6648246,6.4159559 3.6461907,6.4299914 3.6853547,6.5320516 3.7240758,6.6329595 3.7086829,6.6456199 3.6004887,6.6018458 3.3580758,6.5037645 2.2762409,6.4686844 2.1716196,6.5555116 2.1183516,6.5997206 2.0552486,6.7662958 2.0313897,6.9256803 1.9136871,7.7119693 2.4658324,8.9037703 3.1411806,9.321159 3.6718649,9.649139 4.3757394,9.6853763 4.6602872,9.399365 4.7659433,9.2931658 4.7753037,9.2960002 4.7963576,9.4405836 4.8314022,9.6812403 4.7616639,9.7896815 4.5020937,9.8981359 4.1141921,10.060212 3.5901987,10.023923 3.1939962,9.8075453 3.005329,9.7045093 2.8661979,9.60177 2.8848156,9.5792363 2.9034326,9.5567034 2.8762314,9.4871379 2.8243727,9.424646 2.7725073,9.3621551 2.7609964,9.3110263 2.7987858,9.3110263 c 0.037789,0 0.104702,0.04337 0.1486936,0.096378 0.061426,0.07401 0.059391,0.1046445 -0.00876,0.1319898 -0.060913,0.024442 -0.063085,0.037313 -0.00693,0.041035 C 3.0791651,9.5901991 3.089906,9.4692586 2.9526904,9.3450796 2.8409655,9.2439724 2.8000332,9.2384188 2.7110197,9.3122939 2.5518316,9.4444082 2.1943276,9.0665965 1.8921602,8.4469208 1.6126297,7.8736671 1.611305,7.8681851 1.7523517,7.8681851 c 0.057621,0 0.1341481,0.077296 0.1700666,0.1717669 0.035917,0.094472 0.083985,0.1717669 0.1068187,0.1717669 0.057569,0 -0.038654,-0.4317922 -0.1140578,-0.5118654 -0.033805,-0.035899 -0.063906,-0.2059484 -0.066891,-0.377887 -0.003,-0.1719387 -0.02102,-0.2739683 -0.040082,-0.2267324 -0.019061,0.047235 -0.108958,0.085883 -0.199774,0.085883 -0.1225444,0 -0.1900584,-0.059688 -0.2618431,-0.2314942 C 1.2933907,6.8223015 1.1814118,6.6701823 1.0977455,6.6115805 1.0046227,6.5463549 0.9659558,6.4721384 0.998044,6.4202184 1.031728,6.3657104 1.022117,6.3529224 0.97114,6.3844294 0.916965,6.4179114 0.891815,6.3573944 0.891815,6.1935551 c 0,-0.3101335 0.2350929,-0.4162817 0.4189891,-0.1891799 0.1202048,0.1484468 0.4054922,0.2029266 0.4054922,0.077434 0,-0.037788 -0.038644,-0.070666 -0.085883,-0.073061 -0.047239,-0.0024 -0.024047,-0.029414 0.051532,-0.06004 0.1570707,-0.06365 1.2742545,0.018255 1.7863757,0.1309665 0.455513,0.1002522 1.2883937,0.513305 1.5778714,0.7825167 0.1276643,0.1187265 0.317497,0.2224634 0.4218505,0.2305262 0.290669,0.022458 0.3398689,0.056506 0.4661222,0.3225647 0.064411,0.1357307 0.1620332,0.2467829 0.216943,0.2467829 0.128753,0 0.1305163,-0.2673667 0.00205,-0.316649 -0.053761,-0.020631 -0.1130808,-0.077474 -0.1318242,-0.1263174 -0.024954,-0.065024 0.04711,-0.086602 0.2690957,-0.080572 0.1667451,0.00453 0.3033622,0.029319 0.303593,0.055087 2.335e-4,0.025768 0.095003,0.1142007 0.2106047,0.1965166 0.2039453,0.1452219 0.2132366,0.1458707 0.3129706,0.021855 0.097755,-0.1215535 0.099405,-0.1207787 0.033736,0.015827 -0.074185,0.1543124 -0.076348,0.4487298 -0.003,0.4033754 0.1500736,-0.092751 0.6093999,0.8703648 0.5227636,1.0961332 -0.019446,0.050673 -0.012228,0.1190885 0.016034,0.1520348 0.028263,0.032947 0.092302,0.1902991 0.1423047,0.3496721 0.1086764,0.3463857 0.4556456,0.6152561 0.9642108,0.7471761 0.522904,0.135639 1.1468185,-0.01951 1.456765,-0.3622541 0.175758,-0.1943571 0.3797,-0.7030467 0.421998,-1.0525787 0.04891,-0.4042251 0.05021,-0.4067595 0.105015,-0.2061202 0.02581,0.094472 0.115482,0.202287 0.199271,0.2395892 0.186108,0.082852 0.186093,0.081951 0.0092,0.5306466 -0.202421,0.5135424 -0.25693,0.5666074 -0.428043,0.4166893 -0.150085,-0.1314966 -0.149973,-0.1348605 -0.0073,0.2170596 0.05526,0.1362413 -0.456067,0.4952213 -0.8881715,0.6235423 -0.3675655,0.109155 -0.4093595,0.11106 -0.8351195,0.03807 z"
       style="fill:#4f3533;stroke-width:0.0687069" />
    <path
       style="fill:#332e2b;stroke-width:0.0687069"
       d="M 8.999218,10.6355 C 8.6869492,10.59772 8.3121503,10.474563 8.3121503,10.409736 c 0,-0.03509 -0.038645,-0.04913 -0.085883,-0.0312 -0.04724,0.01793 -0.2657281,-0.108788 -0.4855376,-0.281589 C 7.3920638,9.8228459 7.3526188,9.7685188 7.4315492,9.6711202 c 0.066189,-0.081678 0.067421,-0.097794 0.00462,-0.060045 -0.048265,0.028995 -0.085883,0.017947 -0.085883,-0.02522 0,-0.042249 -0.035694,-0.054756 -0.079325,-0.027793 -0.050113,0.03097 -0.060631,0.018782 -0.028571,-0.033093 0.027912,-0.045165 0.1067286,-0.064352 0.1751436,-0.042637 0.068413,0.021714 0.1675652,-0.00369 0.2203337,-0.056461 0.082113,-0.082117 0.1073189,-0.071833 0.1749059,0.071385 0.061786,0.1309201 0.060588,0.1550244 -0.00547,0.1107864 -0.046452,-0.031098 0.0095,0.027679 0.1243368,0.1306122 0.5746934,0.5151132 1.4404848,0.6579082 2.0123513,0.3318972 0.1606015,-0.091555 0.2924765,-0.1994202 0.2930555,-0.2396975 5.57e-4,-0.040277 0.03037,-0.026854 0.0662,0.029828 0.03584,0.056684 0.0972,0.1069246 0.13636,0.1116482 0.03917,0.00472 0.08787,0.012453 0.108249,0.017177 0.02037,0.00472 -0.02365,0.073712 -0.09779,0.1533093 -0.07993,0.08579 -0.169271,0.123433 -0.219414,0.09244 -0.05433,-0.03358 -0.06702,-0.02386 -0.03547,0.02717 0.03016,0.0488 -0.02537,0.108738 -0.143976,0.155374 -0.4020575,0.158094 -0.5687825,0.18907 -0.6150165,0.114262 -0.02628,-0.04252 -0.01402,-0.05456 0.02868,-0.02817 0.04101,0.02535 0.09262,0.01689 0.114673,-0.01879 0.05093,-0.08242 -0.15987,-0.150651 -0.4166755,-0.134871 -0.108864,0.0067 -0.332457,-0.02546 -0.4968738,-0.07145 -0.1644165,-0.04598 -0.3162151,-0.06633 -0.3373308,-0.04522 -0.021113,0.02112 0.061794,0.05843 0.1842434,0.08292 0.162873,0.03257 0.1980945,0.06158 0.1312115,0.108037 -0.062272,0.04326 -0.042133,0.04965 0.063162,0.02003 0.088819,-0.02498 0.1545897,-0.0132 0.1545897,0.0277 0,0.03915 0.03865,0.05702 0.08588,0.0397 0.08648,-0.0317 0.315954,0.07661 0.25566,0.120672 -0.01781,0.01301 -0.109658,0.0143 -0.20413,0.0029 z M 8.0602073,10.129513 C 7.9531499,10.058978 7.7882613,9.9494117 7.6937892,9.8860318 c -0.094471,-0.06338 -0.063555,-0.019972 0.068704,0.096461 0.1322609,0.1164332 0.271392,0.2412302 0.3091807,0.2773262 0.03779,0.0361 0.094464,0.0504 0.1259445,0.03178 0.031478,-0.01862 -0.030359,-0.09156 -0.1374144,-0.162091 z m 2.2272617,-0.01335 c 0.04724,0.01694 0.08589,-0.0027 0.08589,-0.04364 0,-0.1077563 -0.158772,-0.091323 -0.313225,0.03242 -0.1312345,0.10514 -0.1311705,0.105838 0.0041,0.04364 0.07558,-0.03477 0.176061,-0.04935 0.223296,-0.03242 z M 3.4986641,9.9329465 C 3.1639364,9.8313766 2.9947344,9.7137095 3.0946291,9.6519715 3.1449298,9.6208815 3.2398319,9.6242048 3.3055142,9.6593616 3.5402103,9.7849671 3.5173758,9.7202359 3.2670657,9.550372 3.1269345,9.4552744 2.982722,9.3957365 2.9465958,9.418064 2.9104652,9.4403914 2.8893085,9.4331731 2.8995705,9.4020221 2.9271324,9.3183695 2.5202343,8.8300888 2.4229623,8.8300863 2.3770573,8.8300852 2.3024395,8.7605191 2.2571493,8.6754941 2.2118601,8.5904699 2.1257454,8.4799637 2.0657876,8.4299255 c -0.063239,-0.052777 -0.068747,-0.070111 -0.013109,-0.041282 0.075631,0.039192 0.085822,0.00953 0.048214,-0.1403339 C 1.9798652,7.7661001 1.9917892,7.6492438 2.1256586,8.0056036 2.5365109,9.0993011 3.3568746,9.7042009 4.3230379,9.625854 4.6240355,9.601445 4.7395223,9.611207 4.6706974,9.655236 c -0.09161,0.058606 -0.09161,0.066387 0,0.070021 0.05668,0.00225 -0.015051,0.066408 -0.1594036,0.1425768 -0.1443561,0.076168 -0.3144055,0.1247651 -0.3778883,0.1079926 -0.078444,-0.020726 -0.064325,-0.033048 0.044074,-0.038464 0.2891998,-0.01445 -0.01006,-0.2150438 -0.3091797,-0.2072415 -0.2325447,0.00606 -0.2429228,0.013136 -0.090792,0.061858 0.094472,0.030255 0.1253896,0.060264 0.068704,0.066687 -0.072911,0.00826 -0.062863,0.028952 0.034351,0.070726 0.1250757,0.053747 0.1219919,0.058951 -0.034351,0.057972 C 3.7517398,9.986746 3.5953437,9.9622863 3.4986652,9.9329492 Z M 10.580957,9.287645 c 0.07499,-0.1829096 0.119136,-0.3604437 0.09808,-0.3945194 -0.02107,-0.034075 -0.0042,-0.1163073 0.03741,-0.1827368 0.06566,-0.1047685 0.07013,-0.1003435 0.03358,0.033377 -0.03433,0.1255963 -0.02019,0.1457391 0.07629,0.1087192 0.102909,-0.039488 0.113023,-0.012235 0.07727,0.208092 -0.02455,0.1513101 -0.01508,0.2374244 0.02349,0.2135832 0.08343,-0.051562 0.08124,0.042275 -0.0041,0.1742822 -0.05692,0.088075 -0.06676,0.085578 -0.06765,-0.017176 -0.0015,-0.1688544 -0.169444,-0.1496577 -0.300587,0.034353 -0.08067,0.1132054 -0.07367,0.065561 0.02619,-0.1779739 z M 6.9061756,9.1097702 c -0.060007,-0.11604 -0.085123,-0.2114554 -0.055808,-0.2120341 0.029315,-5.762e-4 0.016274,-0.024583 -0.028956,-0.053343 -0.051258,-0.032588 -0.059784,-0.088651 -0.022619,-0.1487844 0.042886,-0.069398 0.072997,-0.025266 0.1072221,0.1571623 0.047752,0.2545371 0.13961,0.3735592 0.2235328,0.2896354 C 7.1542787,9.1176732 7.1290366,9.0682005 7.073449,9.0324658 6.9904733,8.9791246 6.988788,8.9569027 7.064065,8.9083226 7.1404134,8.8590505 7.140072,8.802751 7.0620147,8.5718307 6.9793388,8.327256 6.9543176,8.3047148 6.8500907,8.3809273 6.78509,8.4284562 6.7318853,8.5257709 6.7318553,8.5971826 6.7318255,8.6685944 6.6422748,8.5377805 6.5328528,8.3064857 6.4234316,8.0751911 6.2619859,7.8355762 6.1740857,7.7740084 6.0861848,7.7124402 6.0472724,7.6620673 6.0876132,7.6620673 c 0.040338,0 0.1286461,0.061108 0.1962371,0.1357934 0.067592,0.074687 0.1544539,0.1162862 0.193031,0.092444 0.038576,-0.023842 0.049514,-0.00997 0.024295,0.030825 -0.072552,0.1173875 0.088925,0.3984318 0.2352529,0.4094542 0.073091,0.00551 0.1328911,-0.024139 0.1328911,-0.065877 0,-0.041738 -0.020413,-0.055473 -0.045367,-0.030521 -0.024954,0.024952 -0.088163,-0.015733 -0.14047,-0.090412 -0.072278,-0.1031958 -0.076974,-0.1696662 -0.019532,-0.2769852 0.041561,-0.077663 0.054559,-0.2096031 0.028879,-0.2932004 -0.059203,-0.192722 5.113e-4,-0.1387217 0.1378407,0.124679 0.093393,0.1791065 0.1065675,0.185727 0.1069381,0.053738 2.336e-4,-0.082794 0.023611,-0.1648353 0.051951,-0.1823131 0.02834,-0.017478 0.057433,0.1571116 0.064651,0.3879762 0.011664,0.3732763 0.1755455,0.9152354 0.3054837,1.0102621 0.026159,0.019133 0.00385,0.094608 -0.049634,0.1677218 -0.053464,0.073114 -0.097204,0.1077797 -0.097204,0.077036 0,-0.030744 -0.044452,-0.019006 -0.098782,0.026084 -0.08053,0.066837 -0.1189356,0.043006 -0.2078843,-0.1290011 z M 4.9476235,9.0362021 c 0,-0.056684 0.029965,-0.1494372 0.066599,-0.2061204 0.059203,-0.091609 0.066599,-0.091609 0.066599,0 0,0.056684 -0.029974,0.1494372 -0.066599,0.2061204 -0.059203,0.091608 -0.066599,0.091608 -0.066599,0 z M 2.0010401,8.6411377 c -0.074972,-0.1752053 -0.073279,-0.1792462 0.02332,-0.055575 0.057295,0.073353 0.1041759,0.1583774 0.1041759,0.1889435 0,0.1044283 -0.046606,0.055676 -0.1275019,-0.1333687 z M 1.7961684,8.2431319 C 1.681051,7.9904768 1.7030134,7.9365766 1.8274927,8.1662653 1.8856183,8.2735245 1.9203222,8.3741394 1.9046105,8.3898525 1.8888932,8.4055665 1.8400975,8.3395417 1.7961729,8.243132 Z M 5.1516391,7.9727204 c 0,-0.2293922 0.00684,-0.2358841 0.1701461,-0.1614772 0.1186731,0.054071 0.1661028,0.1263736 0.1567808,0.2390007 -0.00736,0.088812 -0.038892,0.161477 -0.070097,0.161477 -0.031205,0 -0.051711,-0.038648 -0.045581,-0.085883 0.021918,-0.1687766 -0.00633,-0.2576503 -0.081847,-0.2576503 -0.044784,0 -0.063051,0.0715 -0.043878,0.1717668 0.018061,0.094472 0.00624,0.1717668 -0.026347,0.1717668 -0.032548,0 -0.059177,-0.1075498 -0.059177,-0.2390008 z m 5.7459099,1.168e-4 c 0.02771,-0.072231 -0.0024,-0.1046502 -0.09725,-0.1046502 -0.147101,0 -0.250487,-0.1712429 -0.176077,-0.291643 0.02663,-0.043092 0.01262,-0.052989 -0.03413,-0.024099 -0.112799,0.069713 -0.09826,-0.018679 0.02304,-0.139966 0.05629,-0.056297 0.211842,-0.1201247 0.345652,-0.1418393 0.133811,-0.021714 0.228875,-0.053899 0.211253,-0.071522 -0.01762,-0.017622 0.051,-0.1152876 0.152472,-0.2170337 0.207168,-0.2077067 0.393644,-0.2030663 0.449674,0.011186 0.04418,0.1689773 0.0019,0.2565513 -0.1239,0.2565513 -0.05011,0 -0.142394,0.07828 -0.205083,0.1739563 -0.06321,0.096463 -0.147973,0.1529483 -0.190286,0.1267977 -0.0457,-0.028245 -0.05699,-0.015916 -0.02816,0.030744 0.06324,0.102343 -0.06385,0.3337314 -0.233063,0.4242913 -0.10915,0.058416 -0.126776,0.052279 -0.09413,-0.032779 z M 5.558467,7.7029426 C 5.6500179,7.5926305 5.9074134,7.5115853 5.9074134,7.593071 c 0,0.030554 -0.096203,0.089089 -0.2137841,0.1300786 C 5.5142894,7.7856686 5.4925128,7.7824126 5.558467,7.7029426 Z M 5.1841378,7.5963604 c 0.022337,-0.036138 0.085996,-0.048289 0.1414682,-0.027003 0.1420251,0.0545 0.1252887,0.092709 -0.040602,0.092709 -0.077811,0 -0.1231944,-0.029568 -0.1008605,-0.065706 z M 6.4076941,7.3700628 c 0.035301,-0.094209 0.00838,-0.1202368 -0.1245498,-0.1202368 -0.093286,0 -0.1696108,-0.02876 -0.1696108,-0.06391 0,-0.038079 0.081787,-0.040455 0.2023532,-0.00588 0.1380955,0.039606 0.2127374,0.032628 0.2350501,-0.021973 0.017984,-0.044015 0.035139,-0.029701 0.038123,0.031817 0.003,0.061503 -0.046743,0.1542574 -0.1105002,0.2061203 -0.1015151,0.082576 -0.1103234,0.079352 -0.070859,-0.025941 z m 4.1200029,-0.064762 c 0.0096,-0.045875 -0.02895,-0.084854 -0.08564,-0.086619 C 10.213793,7.2115718 9.6693105,6.768879 9.8888345,6.768879 c 0.03346,0 0.0732,0.037125 0.08833,0.082499 0.0207,0.062107 0.039709,0.062749 0.076869,0.0026 0.03164,-0.051194 -0.03173,-0.1032984 -0.1763635,-0.1450124 -0.225746,-0.065109 -0.225746,-0.065109 0.06626,-0.071306 0.1606035,-0.0034 0.2920035,0.017808 0.2920035,0.04715 0,0.02934 0.127744,0.041163 0.283875,0.026274 0.182199,-0.017376 0.268307,-0.00188 0.240406,0.043264 -0.02391,0.038685 -0.105274,0.054174 -0.180816,0.034419 -0.07553,-0.019754 -0.137344,-0.00237 -0.137344,0.038647 0,0.041489 0.05101,0.054992 0.114989,0.030439 0.08653,-0.033204 0.10426,-0.01616 0.07163,0.068875 -0.02385,0.06215 -0.0016,0.1548446 0.04962,0.205988 0.07818,0.07818 0.0722,0.1059671 -0.03751,0.1744906 -0.101388,0.063318 -0.126619,0.062892 -0.113084,-0.0019 z M 5.5409773,7.272729 c -0.069842,-0.069841 -0.054628,-0.1603158 0.026954,-0.1603158 0.040021,0 0.055021,0.028707 0.033334,0.063795 -0.021687,0.035087 0.030598,0.077253 0.116182,0.093704 0.1432043,0.027524 0.1441979,0.030655 0.012468,0.039265 -0.078726,0.00515 -0.1637511,-0.011254 -0.1889433,-0.036448 z M 1.8328429,7.0400195 C 1.7921201,6.884303 1.9649617,6.4940524 2.0746488,6.4940524 c 0.070021,0 0.073535,-0.017657 -0.073364,0.3691293 C 1.8910638,7.1533998 1.868645,7.1769366 1.8328403,7.0400195 Z m 7.6090076,0.010094 c 0.02117,-0.034265 -0.02108,-0.046717 -0.09391,-0.027674 -0.100344,0.02624 -0.126598,0.00389 -0.108412,-0.092291 0.0132,-0.069804 0.02636,-0.1491349 0.02925,-0.1762905 0.0029,-0.027156 0.05146,-0.031645 0.107923,-0.00998 0.05647,0.021668 0.08756,0.063835 0.069111,0.093705 -0.01846,0.029869 0.01459,0.072787 0.07346,0.095375 0.110538,0.042417 0.07448,0.1794515 -0.04721,0.1794515 -0.03779,0 -0.05138,-0.028035 -0.0302,-0.062299 z M 4.9872337,6.9381925 C 4.9292027,6.8801592 4.8651562,6.8337822 4.8449128,6.8351318 c -0.1762407,0.011749 -0.1979678,-0.00128 -0.1245489,-0.0747 0.057064,-0.057068 0.1321932,-0.037963 0.2885687,0.073386 0.116277,0.082797 0.2114135,0.1638935 0.2114135,0.1802146 0,0.066635 -0.1343448,0.022928 -0.2331124,-0.07584 z m 2.8783221,-0.0319 c 0.023354,-0.037788 0.00786,-0.068707 -0.034352,-0.068707 -0.042245,0 -0.056406,-0.033027 -0.031462,-0.073391 0.024954,-0.040365 0.096338,-0.055747 0.158645,-0.034185 0.083549,0.028915 0.078281,0.01211 -0.020087,-0.064023 -0.1256983,-0.097293 -0.1261343,-0.1032284 -0.00762,-0.1032284 0.069191,0 0.1663124,0.054107 0.2158355,0.1202367 0.080958,0.1081097 0.086406,0.1029119 0.054004,-0.05153 -0.03135,-0.1494581 -0.024218,-0.1577338 0.054944,-0.06372 0.050044,0.059426 0.1528189,0.1435106 0.2283963,0.1868543 0.1268561,0.072752 0.1215781,0.079492 -0.068704,0.087744 -0.2027363,0.00879 -0.2033007,0.00985 -0.034351,0.063947 0.1346269,0.043116 0.092897,0.05649 -0.1929986,0.061858 -0.22724,0.00427 -0.3487557,-0.019055 -0.3223021,-0.061858 z M 7.4573604,6.7323404 c -0.074852,-0.056617 -0.095309,-0.1008752 -0.046624,-0.1008752 0.04771,0 0.1331236,0.046377 0.1898071,0.1030596 0.131704,0.1317047 0.03182,0.1301802 -0.1431846,-0.00219 z m 0.9666655,-0.086612 c -0.018506,-0.029944 0.026048,-0.058941 0.099004,-0.064436 0.072962,-0.0055 0.1326532,0.019005 0.1326532,0.054444 0,0.078214 -0.1845751,0.086175 -0.2316572,0.00999 z M 3.2966052,6.1333414 c -6.85e-5,-0.072735 0.2587508,-0.064342 0.3046225,0.00988 0.020875,0.033776 -0.039115,0.056964 -0.13331,0.05153 -0.094195,-0.00543 -0.1712861,-0.03307 -0.1713125,-0.06141 z M 1.9617984,6.0889967 c -0.1228531,-0.048126 -0.1236861,-0.055203 -0.011562,-0.098231 0.22293,-0.085546 0.498932,-0.052919 0.498932,0.058983 0,0.0725 -0.02214,0.083211 -0.070995,0.034353 -0.039046,-0.039049 -0.1343788,-0.068824 -0.211846,-0.066168 -0.1394407,0.00478 -0.1394749,0.00542 -0.00342,0.063878 0.1728287,0.074268 -0.012913,0.080904 -0.201097,0.00719 z"
       id="path869" />
  </g>
</svg>
