<svg width="64" height="64" version="1.1" viewBox="0 0 16.9 16.9" xmlns="http://www.w3.org/2000/svg">
 <rect width="16.9" height="16.9" ry="1.59" fill="#ccc"/>
 <g transform="matrix(.855 0 0 .855 18.8 5.9)">
  <path d="m-15.2-1.41c-1.09.0185-4.28.783-5.25 1.24l1.95.132c.298-.218 2.9-.872 3.47-.869.535.00355.604.0432 1.54.881.401.359.589.529.609.63l.786-.0718c.000524-.0115.0014-.0229.0036-.0367.036-.218.0064-.251-.836-.912-1.02-.801-1.5-1.01-2.27-1z" fill="#dda064" stroke-width=".0803"/>
  <path d="m-15.2-1.44c-.0456-.000104-.0547.00581-.016.0176.0773.0235.141.119.141.213 0 .164-.0043.164-.11.0196-.106-.146-.112-.145-.201.0196-.135.253-.126.26.331.264.527.00356.598.0447 1.53.881.441.396.625.561.611.659l.795-.0486c-.0134-.0239-.0103-.0548-.0026-.0961.0409-.218-.216-.496-.314-.34-.0493.0778-.0678.0629-.0687-.0553-.000798-.105-.203-.316-.576-.603-.754-.579-.779-.592-.916-.477-.132.109-.358-.0208-.358-.206 0-.13-.124-.176-.612-.23-.108-.0119-.19-.018-.235-.0181zm-.584.0636c-.227.0159-.591.0815-1.13.192-1.04.213-2.27.547-3.04.812l1.43.332c.123-.0725 1.06-.401 1.24-.434.766-.136 1.59-.401 1.69-.544.191-.273.19-.385-.189-.359zm-1.57.4c.0153-.000754.0304.0347.0579.106.0355.0925.0105.196-.0662.272-.105.105-.123.107-.118.0062.0031-.0647.0328-.187.0662-.272.0292-.0745.0447-.112.0599-.113zm-1.06.259c.0292-.0011.056.00643.0754.0258.026.026.0068.0962-.0424.156-.116.14-.23.138-.23-.00413 0-.0905.11-.174.197-.177z" fill="#a19e9d" stroke-width=".0803"/>
  <g stroke-width=".0803">
   <path d="m-17.3-.867c-.0551-.143-.0594-.143-.118.00582-.0334.0851-.0632.208-.0663.272-.0048.101.0123.0997.118-.00582.0766-.0766.102-.18.0663-.272z" fill="#a8594a"/>
   <path d="m-18.3-.539c.0643-.0775.0674-.13.0098-.165-.112-.0693-.245.019-.245.163 0 .148.114.149.235.00241z" fill="#a8594a"/>
   <path d="m-19-.0658c-.0232-.0232-.336-.0459-.696-.0506-.36-.00466-.654-.0196-.654-.0331 0-.0567 2.03-.672 2.73-.829 1.23-.274 2.1-.424 2.16-.371.0272.0272-.0038.142-.0689.254-.101.175-.272.244-1.16.472-.574.147-1.28.342-1.57.433-.548.173-.669.194-.738.124z" fill="#a8594a"/>
   <path d="m-13.5-.097c-.822-.755-1.18-.942-1.64-.855-.302.0567-.32.0358-.185-.216.088-.165.0944-.165.201-.0195.105.144.11.143.11-.0257 0-.129.048-.176.181-.175.298.00181.542.0915.542.199 0 .18.226.314.353.208.089-.0738.248.00954.775.406.364.275.679.563.699.64.0202.0773.0816.123.136.102.139-.0533.299.162.239.32-.0339.0883-.145.13-.343.128-.255-.00204-.392-.0939-1.07-.714z" fill="#a8594a"/>
   <path d="m-15.4-1.06c0-.0858.0362-.178.0803-.206.0456-.0282.0803.0393.0803.156 0 .113-.0362.206-.0803.206s-.0803-.0702-.0803-.156z" fill="#656960"/>
   <path d="m-17.2-.573c.0937-.0664.0979-.122.0218-.289-.0518-.114-.0858-.207-.0756-.207s.398-.0723.862-.161c.464-.0884.852-.161.864-.161.0111 0 .0202.0651.0202.145 0 .209-.159.337-.418.337-.124 0-.225.0322-.225.0716 0 .109-.433.197-.467.0951-.0158-.0475-.0658-.0864-.111-.0864-.0452 0-.0614.0542-.036.121.031.0809-.0036.121-.105.121-.0834 0-.218.0215-.299.0478-.117.0381-.124.0311-.0312-.0344z" fill="#656960"/>
   <path d="m-19.4-.083c-.239-.0167-.403-.0627-.377-.106.0646-.105-.071-.0961-.178.0111-.0479.0479-.173.0742-.277.0585-.143-.0216-.0678-.071.307-.201.384-.133.487-.146.453-.0585-.0306.0799.0185.113.166.113.219 0 .265-.0733.13-.208-.053-.053.0282-.109.241-.166.287-.0767.321-.0705.321.0591 0 .207.127.257.275.108.145-.145.101-.272-.0994-.282-.139-.00697.664-.225.851-.231.0684-.00226.0965.0919.0838.28-.019.281-.0243.285-.669.482-.358.109-.685.192-.727.184-.0419-.00817-.267-.0282-.5-.0444z" fill="#656960"/>
   <path d="m-12.9-.28c0-.0947-.223-.0796-.284.0192-.0286.0463-.0282.146.000978.221.0485.125.0627.124.168-.0192.0631-.0858.115-.185.115-.221z" fill="#656960"/>
   <path d="m-13.5-.0808c-.523-.484-.866-.736-1.12-.824-.289-.0989-.374-.168-.379-.306-.0051-.143.0379-.178.218-.178.123 0 .271.0576.328.128.057.0704.194.219.304.33.164.165.206.178.227.0728.0417-.207.169-.155.782.314.441.338.59.503.629.697.0462.231.0604.241.155.112.0902-.123.117-.127.201-.0244.167.201.028.379-.295.377-.255-.00134-.388-.0901-1.04-.698z" fill="#656960"/>
   <path d="m-15.4-1.06c0-.091.0362-.165.0803-.165s.0803.0521.0803.116-.0362.138-.0803.165c-.0442.0273-.0803-.0248-.0803-.116z" fill="#4f3533"/>
   <path d="m-17.2-.559c.129-.0522.13-.321.000869-.401-.0878-.0542 1.18-.335 1.57-.346.17-.0049.182.127.0258.283-.13.13-.367.154-.367.037 0-.0428-.0542-.057-.121-.0316-.0663.0254-.121.0966-.121.158 0 .139-.133.147-.188.0115-.0242-.06-.0431-.0438-.0469.0402-.0035.0773-.0295.141-.0577.141s-.0982-.0633-.155-.141c-.0886-.12-.119-.124-.21-.0284-.0756.0801-.0771.096-.0054.0555.0628-.0355.1-.00661.1.0772 0 .0847-.0433.117-.118.0886-.0649-.0249-.139-.0107-.165.0316-.0261.0423-.0906.074-.143.0705-.069-.00457-.0677-.0176.0047-.0469z" fill="#4f3533"/>
   <path d="m-17.7-.506c-.0273-.0442-.0053-.0803.0488-.0803.0542 0 .0818-.0166.0615-.037s-.12-.0153-.221.0111c-.138.036-.157.0652-.0768.116.147.093.248.0876.188-.00992z" fill="#4f3533"/>
   <path d="m-18.3-.285c.164-.068.243-.158.248-.284.0045-.122-.0293-.17-.1-.143-.059.0226-.107.0101-.107-.0278 0-.0379.129-.0931.287-.123.158-.0296.33-.0702.382-.0901.0614-.0235.0956.063.0972.246.0015.171-.038.287-.1.294-.0566.00663-.148.0157-.203.0201-.0552.00442-.119.0306-.141.0582-.0221.0276-.167.0725-.321.0997-.281.0496-.281.0496-.0402-.0502z" fill="#4f3533"/>
   <path d="m-19.4-.164c.154-.0186.307-.0761.34-.128.0392-.0616.0602-.0455.061.0467.000978.114-.0633.138-.34.128-.325-.0123-.328-.0144-.061-.0467z" fill="#4f3533"/>
   <path d="m-13.2.17c-.323-.304-.464-.492-.436-.582.0293-.0921.0205-.103-.0286-.0355-.0532.0733-.123.0502-.276-.0917-.275-.255-.662-.448-.898-.448-.164 0-.188-.0311-.155-.205.035-.183.0661-.199.29-.151.258.0559.413.198.298.273-.0357.0233.0566.101.205.173.219.106.27.11.27.0201 0-.171.106-.134.516.178.337.258.364.299.243.388-.0972.0711-.118.153-.0752.289.06.189.0608.189.191-.0601.127-.243.135-.246.302-.11.126.103.152.175.0979.272-.0533.0952-.0294.177.0851.291.155.155.16.155.208.00666.0287-.0904.0952-.135.163-.108.205.0786-.0164.349-.285.349-.177 0-.358-.113-.715-.449z" fill="#4f3533"/>
  </g>
 </g>
 <path d="m3.27 2.51 4.14 6v6.39l2.05-1.87v-4.52l4.14-6z" fill="#333" stroke-linecap="round" stroke-linejoin="round" stroke-width=".447"/>
 <path d="m15.7 5.33c-.12-.0156-.302.045-.615.173-.243.0991-1.04.412-1.78.694-1.34.513-1.34.513-2.34.403-.548-.0608-1.34-.118-1.76-.127-.652-.014-.744-.0239-.74-.123l-.672.0617c.0157.0783-.0848.11-.278.168-.225.068-.425.168-.447.223-.021.0548-.0909.1-.155.1-.064 0-.155.0383-.202.0856-.0912.0912-.172.0986-.758.0652-.322-.0183-.421-.0619-.75-.331-.602-.49-1.05-.673-1.86-.757-.238-.0248-.408-.0672-.378-.0949.003-.00275.0111-.00638.0151-.00932l-1.66-.114c-.0291.0139-.0619.0287-.0862.0419-.0729.0396-.187.0887-.254.109-.177.0549-.0844.578.132.749.104.082.22.326.335.703.262.859.619 1.52 1.06 1.96.565.565 1.19.827 1.74.725.235-.044.807-.375.807-.466 0-.0274.0886-.183.197-.345.108-.162.215-.372.238-.467.023-.0945.084-.358.135-.584.0765-.339.12-.416.246-.435.219-.0321.449.143.59.447.428.926.549 1.15.791 1.45.344.435.652.67 1.15.875.901.371 1.96.0587 2.45-.721.226-.359.447-1 .544-1.59.099-.599.0033-.53 1.62-1.18.543-.219 1.35-.583 1.78-.81.437-.227.816-.413.842-.413s.0851.209.13.464c.106.598.205.918.321 1.03.108.108.127.0708.185-.345.0336-.242-.0292-.49-.341-1.34-.0648-.177-.122-.269-.242-.285zm-13.5.979 1.02.0326.885.0221.243.196.729.375.295.504-.0192.754.0116.502-.236.537-.236.503-.885.182-1.32-.932-.333-.566-.352-.64-.0635-.978zm5.37.359 2.56.226.909.579-.114 1.2-.475 1.09-.724.547-1.02.0332-.228-.208-1.06-.926-.611-1.55.249-.634z" fill="#dda064" stroke-width=".0687"/>
 <path d="m15.7 5.33c-.12-.0156-.302.045-.615.173-.243.0991-1.04.412-1.78.694-1.34.513-1.34.513-2.34.403-.548-.0608-1.34-.118-1.76-.127-.543-.0117-.697-.0186-.73-.078l-.68.0413c-.00872.0608-.106.0916-.277.143-.347.105-.467.217-.388.371l.395-.282 2.56.226.909.579-.0675.714c.0027.000975.0042.000651.007.00175.209.0802.357.279.318.427-.0562.215-.259.168-.366-.00233l-.0059.0623-.475 1.09-.724.547-1.02.0332-.228-.208-1.06-.926-.611-1.55.125-.318c-.00248-.00158-.00451-.00187-.00698-.00349-.147-.0962-.164-.138-.103-.251.0878-.164.0434-.234-.0652-.103-.0577.0695-.213.0851-.608.0617-.507-.03-.548-.0454-.905-.336-.596-.485-1.05-.669-1.85-.752-.238-.0248-.408-.0672-.378-.0949.00188-.00169.0204-.0087.0244-.0111l-1.22-.285c-.237.0814-.428.156-.536.215-.0729.0396-.187.0887-.254.109-.101.0314-.114.0858-.0751.331.0264.167.102.333.175.385.151.107.368.564.428.902.113.637.999 2.02 1.21 1.89.0383-.0237.0654-.0178.06.0134-.0271.156.0364.222.392.402.529.268.997.297 1.4.0891.112-.0577.208-.124.265-.177l-.881.181-1.32-.932-.333-.566-.352-.64c.0914.171.0867.18-.0506.0926-.0518-.0328-.0806-.102-.0635-.153.0109-.0326.0251-.0448.0437-.0349s.0417.0417.0704.0955l-.0635-.978.263-.492 1.02.0326.885.0221.243.196.729.375.295.504-.0192.754.0116.502-.0227.0518c.0134-.0134.0214-.0255.0378-.0396.0756-.0647.137-.159.137-.21 0-.0505.0286-.0745.0635-.053s.089-.123.121-.322c.0482-.304.0822-.365.215-.384.224-.0318.453.141.594.447.428.926.549 1.15.791 1.45.344.435.652.67 1.15.875.901.371 1.96.0587 2.45-.721.226-.357.446-1 .545-1.59.083-.496.0946-.516.357-.651.149-.0767.58-.259.958-.405.378-.146 1.05-.434 1.49-.641.624-.293.794-.401.767-.488-.0287-.0903-.0222-.0939.0326-.0169.0569.08.107.0717.306-.0512.131-.081.27-.148.307-.148s.105.193.15.43c.0441.236.0959.512.116.614.0245.125.0687.173.135.147.0542-.0208.0984-.00341.0984.0384 0 .0418-.0309.0763-.0687.0763s-.0687.0309-.0687.0687c0 .0378.0482.0687.107.0687.0635 0 .0873.0322.0582.0792-.0281.0455-.0193.061.021.0361.0386-.0239.0862-.186.106-.361.0346-.307-.0142-.511-.334-1.39-.0648-.177-.122-.269-.242-.285zm-1.08.538c.0668.000223.128.0661.128.175 0 .108-.0389.172-.105.172-.12 0-.204-.164-.137-.271.0322-.0522.0746-.0764.115-.0763zm-13 1.31c.099 0 .254.134.254.219 0 .0599-.122.0648-.258.00989-.114-.0458-.111-.229.00349-.229zm4.51.206c.0378 0 .0687.0464.0687.103 0 .0567-.0309.103-.0687.103-.0378 0-.0687-.0464-.0687-.103 0-.0567.0309-.103.0687-.103zm-.944 1.55-.111.253c.0783-.0304.169-.0822.215-.128.0795-.0795.0774-.0937-.014-.0937-.0458 0-.0743-.0122-.0897-.0314zm2.13.343c.0393-.000701.0884.0247.123.0669.0941.113.0906.115-.099.0408-.0804-.0315-.104-.0703-.06-.0978.0101-.00625.0224-.00965.0355-.00989zm-2.44.349-.0495.106c.0258-.025.0451-.0473.0466-.0623.000812-.00814.00195-.032.00291-.0437z" fill="#a19e9d" stroke-width=".0687"/>
 <path d="m16 6.95c-.0632-.0462-.151-.274-.198-.512-.0824-.419-.0578-.583.0682-.454.0617.0631.299.994.263 1.03-.0102.0103-.0699-.0188-.133-.0646z" fill="#a8594a" stroke-width=".0687"/>
 <path d="m1.85 7.4c0-.0856-.155-.22-.254-.22-.114 0-.117.184-.00342.229.136.0549.258.0504.258-.00946z" fill="#a8594a" stroke-width=".0687"/>
 <path d="m6.18 7.49c0-.0567-.0309-.103-.0687-.103-.0378 0-.0687.0464-.0687.103 0 .0567.0309.103.0687.103.0378 0 .0687-.0464.0687-.103z" fill="#a8594a" stroke-width=".0687"/>
 <path d="m1.91 7.78c-.0576-.108-.0921-.126-.114-.0608-.0172.0515.0112.121.063.153.137.087.142.0781.0508-.0926z" fill="#a8594a" stroke-width=".0687"/>
 <path d="m7.42 9.35c-.0467-.0563-.118-.0819-.158-.0569-.0445.0275-.0211.066.0593.0975.19.0743.193.0728.0991-.0406z" fill="#a8594a" stroke-width=".0687"/>
 <path d="m15.4 5.44c-.0242-.00858-.107.0131-.216.06-.145.0625-.959.376-1.81.697-1.55.583-1.55.583-2.51.46-1.3-.166-3.13-.172-3.49-.0116-.208.0933-.285.19-.238.305l.392-.28 2.56.226.909.579-.067.711c.0084.00157.0141.000346.0239.00291.073.0191.15.078.17.131.0679.177.172.0992.216-.161.0932-.552.0075-.489 1.44-1.07.416-.169.977-.407 1.25-.53.488-.221.492-.224.455-.453-.0341-.21-.0221-.231.134-.231.149 0 .167.0245.137.189-.0188.104-.0087.165.0227.136.0313-.0293.0676-.121.0803-.204.0127-.0832.0579-.183.1-.222.055-.0502.0646-.036.0344.0501-.0339.0964-.0054.119.144.112.116-.00496.141-.02.0664-.0396-.134-.0349-.157-.128-.0501-.194.0384-.0237.052-.0719.0303-.107-.0217-.0352.0068-.064.0635-.064.0567 0 .123-.0325.148-.0722.0061-.00994.0046-.0158-.0035-.0186zm-14 .435c-.413-.00217-.413.0555-.413.285 0 .258.0314.33.197.452.15.111.227.258.319.614.263 1.01 1.1 2.41 1.28 2.14.0457-.0675.0567-.057.0419.0408-.0272.18.49.497.951.584.375.0707.764.00348 1.02-.176.0422-.0296.0705-.0527.0926-.0768l-.88.18-1.32-.932-.333-.566-.352-.64-.0635-.978.263-.492 1.02.0326.885.0221.243.196.729.375.295.504-.0192.754.0116.502-.0151.0343c.00661-.00704.0102-.0132.0175-.0204.0685-.0676.164-.262.212-.433.13-.456.172-.513.394-.536.273-.0276.463.188.75.848.265.61.511.989.866 1.34.299.292.891.627 1.23.693.733.144 1.24-.0146 1.79-.555.3-.297.415-.473.532-.819.0819-.243.141-.445.132-.45-.0092-.00469-.102-.045-.205-.0897-.0569-.0245-.0936-.0501-.122-.0798l-.0046.0506-.475 1.09-.724.547-1.02.0332-.228-.208-1.06-.926-.611-1.55.125-.318c-.00248-.00158-.00451-.00187-.00698-.00349-.143-.094-.163-.14-.107-.246.078-.146-.000763-.175-.128-.0477-.0455.0455-.196.0751-.334.0658-.148-.00993-.275.0195-.308.0716-.0417.0658-.0563.0576-.0571-.0314-.000856-.0978-.0633-.12-.334-.12-.255 0-.363-.0347-.463-.148-.131-.148-.131-.148.0751-.0274.171.101.16.0791-.0687-.127-.151-.136-.398-.309-.55-.383-.441-.217-1.63-.421-2.7-.464-.245-.00983-.428-.0173-.566-.018zm3.86 3.07-.11.25c.157-.0473.292-.229.163-.229-.0257 0-.0428-.00808-.053-.021zm-.324.711-.0285.0605c.0115-.0166.022-.0378.0285-.0605z" fill="#a8594a" stroke-width=".0687"/>
 <path d="m16 6.92c-.0792-.0178-.138-.159-.197-.471-.0823-.436-.0595-.598.0664-.47.0532.0542.291.947.256.961-.0065.00271-.0628-.00649-.125-.0204z" fill="#656960" stroke-width=".0687"/>
 <path d="m1.54 7.7c-.0175-.056-.0462-.148-.0639-.205-.038-.122-.00496-.128.174-.0319.0731.0391.133.113.133.164 0 .134-.205.195-.243.0725z" fill="#656960" stroke-width=".0687"/>
 <path d="m1.65 6.05c-.0452-.0544-.126-.082-.18-.0614-.161.0619-.111.16.0821.16.149 0 .166-.0171.098-.099z" fill="#656960" stroke-width=".0687"/>
 <path d="m2.73 6.33c.0693-.0693-.0189-.0866-.278-.0544-.142.0177-.258.0637-.258.102 0 .0695.459.0284.535-.0479z" fill="#656960" stroke-width=".0687"/>
 <path d="m4.26 6.56c0-.0378-.0696-.0691-.155-.0696-.085-.000516-.232-.0213-.326-.0463-.154-.0407-.162-.0336-.0775.0696.102.124.558.162.558.0463z" fill="#656960" stroke-width=".0687"/>
 <path d="m13.4 6.47c-.0041-.185-.0141-.198-.0639-.0818-.0824.192-.0824.394 0 .344.0378-.0234.0665-.141.0639-.262z" fill="#656960" stroke-width=".0687"/>
 <path d="m12.6 6.76c.0515-.162.0078-.236-.1-.169-.0901.0557-.0977.312-.0092.312.0352 0 .0844-.0642.109-.143z" fill="#656960" stroke-width=".0687"/>
 <path d="m9.89 7.05c0-.0332-.0436-.0965-.0969-.141-.108-.0894-.218.0122-.144.132.0523.0847.24.0912.24.00842z" fill="#656960" stroke-width=".0687"/>
 <path d="m4.96 7.11c.041 0 .0514-.0232.023-.0515-.0283-.0283-.0785-.0515-.112-.0515-.033 0-.105-.0618-.16-.137-.0552-.0755-.123-.114-.151-.0863-.028.0281.000405.108.0632.177.0628.0694.091.152.0626.183-.0284.0313.00496.0365.0742.0116s.159-.0453.2-.0453z" fill="#656960" stroke-width=".0687"/>
 <path d="m5.15 7.49c0-.0567-.0431-.103-.0957-.103-.0526 0-.114-.0483-.137-.107-.0227-.0591-.072-.0884-.11-.0651-.0903.0558.12.379.247.379.0523 0 .0952-.0464.0952-.103z" fill="#656960" stroke-width=".0687"/>
 <path d="m7.03 8.55c-.0434-.217-.0491-.221-.105-.0708-.0377.102-.0302.193.0209.255.112.135.137.0816.0837-.184z" fill="#656960" stroke-width=".0687"/>
 <path d="m2.6 8.99c-.0373-.045-.112-.0649-.166-.0442-.157.0601-.113.147.0678.136.12-.00716.147-.0326.098-.0917z" fill="#656960" stroke-width=".0687"/>
 <path d="m7.45 9.35c-.0955-.146-.125-.156-.208-.0736-.122.122-.124.2-.00419.154.0507-.0194.136-.00776.189.026.143.0905.145.08.023-.107z" fill="#656960" stroke-width=".0687"/>
 <path d="m10.8 9.62c0-.0545-.0288-.117-.064-.139-.0817-.0505-.164.0782-.108.169.0632.102.172.0831.172-.0303z" fill="#656960" stroke-width=".0687"/>
 <path d="m9.34 10.5c-.047-.0567-.132-.103-.189-.103-.0838 0-.0871.0192-.0175.103.047.0567.132.103.189.103.0838 0 .0871-.0192.0175-.103z" fill="#656960" stroke-width=".0687"/>
 <path d="m15.4 5.44c-.0242-.00858-.107.0131-.216.06-1.4.603-4.29 1.57-3.81 1.27.0468-.0289-.279-.0892-.725-.134-.446-.0452-.926-.0971-1.07-.115-.179-.0229-.253-.00779-.24.0495.0284.135-.199.143-.465.0169-.196-.0931-.353-.109-.759-.0745-.669.0566-.996.189-.945.383.00427.0163.0155.0273.0227.0419l.311-.21 2.71.225.962.58-.0448.445c.0375-.0351.0749-.0729.109-.114.127-.151.259-.275.293-.275.0348 0 .161-.0442.28-.0984.119-.0541.557-.236.972-.405.712-.288 1.69-.721 1.74-.769.0125-.012-.0147-.0918-.0605-.178-.0722-.135-.0631-.172.0704-.281.223-.181.266-.156.228.133-.0352.267.0576.267.0984 0 .0296-.194.157-.33.157-.168 0 .0777.0514.114.154.109.116-.00599.125-.0159.0344-.0396-.134-.0349-.157-.128-.0501-.194.0384-.0237.052-.0719.0303-.107-.0217-.0352.0068-.064.0635-.064.0567 0 .123-.0325.148-.0722.0061-.00994.0046-.0158-.0035-.0186zm-14 .444c-.413.000246-.413.0576-.413.287 0 .25.0315.326.172.418.0943.0618.215.218.269.346.0737.176.146.24.292.257.159.0182.199.0598.218.228.0106.0942.0365.185.0623.238l-.0553-.855.263-.492 1.02.0326.885.0221.243.196.729.375.295.504-.0192.754.00815.339c.0876.0329.155-.0537.22-.272.13-.44.173-.497.392-.519.273-.0276.463.188.75.848.265.61.511.989.866 1.34.299.292.891.627 1.23.693.629.123 1.15.0023 1.62-.378.167-.134.226-.225.194-.304-.0178-.0443-.0269-.0694-.0396-.102l-.759.542-1.08.0326-.24-.208-1.13-.926-.646-1.55.146-.352c-.111-.0808-.201-.167-.201-.195 0-.0291-.138-.0582-.307-.0646-.241-.00912-.299.00965-.27.0867.0207.054.0813.115.135.136.126.0485.128.317.00175.317-.133 0-.406-.529-.296-.574.0453-.0184-.0747-.036-.267-.039-.268-.00415-.381-.0399-.481-.153-.131-.148-.131-.148.0751-.0274.171.101.16.0791-.0687-.127-.151-.136-.398-.309-.55-.383-.453-.223-1.63-.422-2.7-.459-.245-.00832-.428-.0146-.566-.0146zm.413 1.98c-.0405-.00155-.0699.0209-.0699.0745 0 .0387.105.279.234.533.228.451.645.936.769.895.034-.0111.139.0378.233.108.12.0893.132.115.0419.0838-.256-.0874.0439.179.358.318.408.181.946.185 1.29.00873.111-.0576.171-.0959.207-.141l-.86.176-1.32-.932-.333-.566-.247-.449c.0272.123.0388.238.0111.238-.0228 0-.0706-.0773-.107-.172-.0395-.104-.137-.173-.205-.176zm9.45.938c-.0173-.00813-.0471-.00716-.0879.00349-.0354.00925-.067.00905-.0966.00291l-.428.931c.0063.00545.0088.00676.0157.0128.148.13.152.13.25 0 .0549-.0725.151-.286.215-.475.0634-.189.129-.38.145-.424.0093-.0253.0045-.0425-.0128-.0506z" fill="#656960" stroke-width=".0687"/>
 <path d="m12.9 6.4c0-.0177.0998-.067.222-.11.122-.0425.192-.049.155-.0144-.0782.0732-.376.171-.376.124z" fill="#4f3533" stroke-width=".0687"/>
 <path d="m11.9 6.78c.0359-.0335.143-.0812.237-.106.172-.0449.172-.0449 0 .0585-.191.115-.342.145-.237.0474z" fill="#4f3533" stroke-width=".0687"/>
 <path d="m1.55 7.69c-.022-.0574-.0379-.156-.0352-.219.00385-.0916.0167-.087.0639.0228.0325.0756.0612.0969.0639.0475.00624-.117.142-.0339.142.0866 0 .134-.188.184-.235.062z" fill="#4f3533" stroke-width=".0687"/>
 <path d="m9.89 7.05c0-.0332-.0436-.0965-.0969-.141-.108-.0894-.218.0122-.144.132.0523.0847.24.0912.24.00842z" fill="#4f3533" stroke-width=".0687"/>
 <path d="m10.7 8.02c-.0856-.281-.276-.591-.421-.686-.364-.238-1.82-.37-2.54-.23-.265.0512-.292.0437-.292-.0801 0-.115-.0169-.123-.105-.0497-.12.0993-.148.0845-.181-.0962-.0177-.0966.0418-.152.236-.22.428-.15 1.17-.174 1.49-.0476.226.0889.31.094.435.0268.124-.0661.338-.0601 1.05.0294.844.107 1.07.134 1.35.159.0953.00851.12.0755.12.323 0 .282-.0191.319-.197.381-.108.0377-.299.191-.424.34-.241.287-.458.351-.519.151z" fill="#4f3533" stroke-width=".0687"/>
 <path d="m4.91 9.03c.0967-.316.174-.382.155-.134-.01.129-.0602.249-.111.266-.0692.0228-.0803-.0111-.0432-.132z" fill="#4f3533" stroke-width=".0687"/>
 <path d="m2.73 6.32c.0211-.0211.00188-.075-.0429-.12-.0626-.0626-.0813-.0623-.0813.00115 0 .0458-.0916.0824-.206.0824-.113 0-.206.035-.206.0777 0 .077.453.0419.536-.0416z" fill="#4f3533" stroke-width=".0687"/>
 <path d="m7.03 8.55c-.0434-.217-.0491-.221-.105-.0708-.0377.102-.0302.193.0209.255.112.135.137.0816.0837-.184z" fill="#4f3533" stroke-width=".0687"/>
 <path d="m7.52 8.56c-.0564-.334-.117-.386-.264-.224-.138.153-.082.388.114.478.196.0896.205.0742.149-.253z" fill="#4f3533" stroke-width=".0687"/>
 <path d="m2.6 8.99c-.0373-.045-.112-.0649-.166-.0442-.157.0601-.113.147.0678.136.12-.00716.147-.0326.098-.0917z" fill="#4f3533" stroke-width=".0687"/>
 <path d="m7.62 9.22c.0587-.0708.056-.112-.0113-.168-.0687-.057-.0924-.0354-.103.0939-.0159.192.00496.206.114.0741z" fill="#4f3533" stroke-width=".0687"/>
 <path d="m8.4 10.1-1.06-.926-.611-1.55.248-.634.515-.367 2.56.225.909.58-.114 1.2-.475 1.09-.723.547-1.02.0328z" fill="#656960" opacity=".655"/>
 <path d="m7.45 9.35c-.0955-.146-.125-.156-.208-.0736-.122.122-.124.2-.00419.154.0507-.0194.136-.00776.189.026.143.0905.145.08.023-.107z" fill="#4f3533" stroke-width=".0687"/>
 <path d="m10.8 9.62c0-.0545-.0288-.117-.064-.139-.0817-.0505-.164.0782-.108.169.0632.102.172.0831.172-.0303z" fill="#4f3533" stroke-width=".0687"/>
 <path d="m9.34 10.5c-.047-.0567-.132-.103-.189-.103-.0838 0-.0871.0192-.0175.103.047.0567.132.103.189.103.0838 0 .0871-.0192.0175-.103z" fill="#4f3533" stroke-width=".0687"/>
 <path d="m2.27 8.42c-.359-.553-.754-1.66-.0216-2.05.779-.143 1.65-.0798 2.35.328.842.367.759 1.39.591 2.13-.0306.836-1.11 1.43-1.71.772-.481-.305-.979-.638-1.21-1.18z" fill="#656960" opacity=".655"/>
 <path d="m8.83 10.6c-.475-.0815-.92-.329-1.33-.74-.422-.424-.619-.737-.936-1.48-.22-.519-.373-.665-.696-.665-.271 0-.341.0874-.401.498-.0307.212-.0811.326-.144.326-.123 0-.25-.234-.199-.367.0215-.056.00838-.213-.0291-.349-.0404-.146-.0424-.247-.00496-.247.0347 0 .0632-.0464.0632-.103 0-.0567-.0431-.103-.0957-.103-.0526 0-.114-.0483-.137-.107-.0227-.0591-.0724-.0882-.11-.0647-.0381.0235-.0692.0245-.0692.00214 0-.0223.0696-.0674.155-.1.15-.0579.151-.0612.0172-.114-.0756-.0298-.174-.102-.218-.161-.0441-.059-.103-.0843-.131-.0562-.028.0281.00513.113.0737.189.0686.0758.0928.138.0538.138-.039 0-.109-.0464-.156-.103-.047-.0567-.123-.103-.17-.103-.0462 0-.142-.0641-.213-.142-.0822-.0909-.0954-.134-.0364-.12.0509.0122.107-.0164.124-.0636.0194-.053-.0298-.0862-.129-.0868-.0882-.000516-.23-.0197-.316-.0426-.129-.0345-.147-.0205-.108.0816.0387.101.0233.114-.0849.0698-.242-.0981-1.32-.133-1.43-.0463-.0533.0442-.116.211-.14.37-.118.786.434 1.98 1.11 2.4.531.328 1.23.364 1.52.0782.106-.106.115-.103.136.0412.035.241-.0347.349-.294.458-.388.162-.912.126-1.31-.0906-.189-.103-.328-.206-.309-.228.0186-.0225-.00858-.0921-.0604-.155-.0519-.0625-.0634-.114-.0256-.114.0378 0 .105.0434.149.0964.0614.074.0594.105-.00876.132-.0609.0244-.0631.0373-.00693.041.147.00977.158-.111.0209-.235-.112-.101-.153-.107-.242-.0328-.159.132-.517-.246-.819-.865-.28-.573-.281-.579-.14-.579.0576 0 .134.0773.17.172.0359.0945.084.172.107.172.0576 0-.0387-.432-.114-.512-.0338-.0359-.0639-.206-.0669-.378-.003-.172-.021-.274-.0401-.227-.0191.0472-.109.0859-.2.0859-.123 0-.19-.0597-.262-.231-.0532-.127-.165-.279-.249-.338-.0931-.0652-.132-.139-.0997-.191.0337-.0545.0241-.0673-.0269-.0358-.0542.0335-.0793-.027-.0793-.191 0-.31.235-.416.419-.189.12.148.405.203.405.0774 0-.0378-.0386-.0707-.0859-.0731-.0472-.0024-.024-.0294.0515-.06.157-.0636 1.27.0183 1.79.131.456.1 1.29.513 1.58.783.128.119.317.222.422.231.291.0225.34.0565.466.323.0644.136.162.247.217.247.129 0 .131-.267.00205-.317-.0538-.0206-.113-.0775-.132-.126-.025-.065.0471-.0866.269-.0806.167.00453.303.0293.304.0551.000234.0258.095.114.211.197.204.145.213.146.313.0219.0978-.122.0994-.121.0337.0158-.0742.154-.0763.449-.003.403.15-.0928.609.87.523 1.1-.0194.0507-.0122.119.016.152.0283.0329.0923.19.142.35.109.346.456.615.964.747.523.136 1.15-.0195 1.46-.362.176-.194.38-.703.422-1.05.0489-.404.0502-.407.105-.206.0258.0945.115.202.199.24.186.0829.186.082.0092.531-.202.514-.257.567-.428.417-.15-.131-.15-.135-.0073.217.0553.136-.456.495-.888.624-.368.109-.409.111-.835.0381z" fill="#4f3533" stroke-width=".0687"/>
 <path d="m9 10.6c-.312-.0378-.687-.161-.687-.226 0-.0351-.0386-.0491-.0859-.0312-.0472.0179-.266-.109-.486-.282-.349-.274-.388-.328-.309-.426.0662-.0817.0674-.0978.00462-.06-.0483.029-.0859.0179-.0859-.0252 0-.0422-.0357-.0548-.0793-.0278-.0501.031-.0606.0188-.0286-.0331.0279-.0452.107-.0644.175-.0426.0684.0217.168-.00369.22-.0565.0821-.0821.107-.0718.175.0714.0618.131.0606.155-.00547.111-.0465-.0311.0095.0277.124.131.575.515 1.44.658 2.01.332.161-.0916.292-.199.293-.24.000557-.0403.0304-.0269.0662.0298.0358.0567.0972.107.136.112.0392.00472.0879.0125.108.0172.0204.00472-.0236.0737-.0978.153-.0799.0858-.169.123-.219.0924-.0543-.0336-.067-.0239-.0355.0272.0302.0488-.0254.109-.144.155-.402.158-.569.189-.615.114-.0263-.0425-.014-.0546.0287-.0282.041.0254.0926.0169.115-.0188.0509-.0824-.16-.151-.417-.135-.109.0067-.332-.0255-.497-.0714-.164-.046-.316-.0663-.337-.0452-.0211.0211.0618.0584.184.0829.163.0326.198.0616.131.108-.0623.0433-.0421.0496.0632.02.0888-.025.155-.0132.155.0277 0 .0392.0386.057.0859.0397.0865-.0317.316.0766.256.121-.0178.013-.11.0143-.204.0029zm-.939-.506c-.107-.0705-.272-.18-.366-.243-.0945-.0634-.0636-.02.0687.0965.132.116.271.241.309.277.0378.0361.0945.0504.126.0318.0315-.0186-.0304-.0916-.137-.162zm2.23-.0134c.0472.0169.0859-.0027.0859-.0436 0-.108-.159-.0913-.313.0324-.131.105-.131.106.0041.0436.0756-.0348.176-.0494.223-.0324zm-6.79-.183c-.335-.102-.504-.219-.404-.281.0503-.0311.145-.0278.211.00739.235.126.212.0609-.0384-.109-.14-.0951-.284-.155-.32-.132-.0361.0223-.0573.0151-.047-.016.0276-.0837-.379-.572-.477-.572-.0459-1.1e-6-.121-.0696-.166-.155-.0453-.085-.131-.196-.191-.246-.0632-.0528-.0687-.0701-.0131-.0413.0756.0392.0858.00953.0482-.14-.121-.482-.109-.599.0248-.243.411 1.09 1.23 1.7 2.2 1.62.301-.0244.416-.0146.348.0294-.0916.0586-.0916.0664 0 .07.0567.00225-.0151.0664-.159.143-.144.0762-.314.125-.378.108-.0784-.0207-.0643-.033.0441-.0385.289-.0144-.0101-.215-.309-.207-.233.00606-.243.0131-.0908.0619.0945.0303.125.0603.0687.0667-.0729.00826-.0629.029.0344.0707.125.0537.122.059-.0344.058-.0945-.000618-.251-.0251-.348-.0544zm7.08-.645c.075-.183.119-.36.0981-.395-.0211-.0341-.0042-.116.0374-.183.0657-.105.0701-.1.0336.0334-.0343.126-.0202.146.0763.109.103-.0395.113-.0122.0773.208-.0246.151-.0151.237.0235.214.0834-.0516.0812.0423-.0041.174-.0569.0881-.0668.0856-.0676-.0172-.0015-.169-.169-.15-.301.0344-.0807.113-.0737.0656.0262-.178zm-3.67-.178c-.06-.116-.0851-.211-.0558-.212.0293-.000576.0163-.0246-.029-.0533-.0513-.0326-.0598-.0887-.0226-.149.0429-.0694.073-.0253.107.157.0478.255.14.374.224.29.0247-.0247-.000511-.0742-.0561-.11-.083-.0533-.0847-.0756-.00938-.124.0763-.0493.076-.106-.00205-.336-.0827-.245-.108-.267-.212-.191-.065.0475-.118.145-.118.216-2.98e-5.0714-.0896-.0594-.199-.291-.109-.231-.271-.471-.359-.532-.0879-.0616-.127-.112-.0865-.112.0403 0 .129.0611.196.136.0676.0747.154.116.193.0924.0386-.0238.0495-.00997.0243.0308-.0726.117.0889.398.235.409.0731.00551.133-.0241.133-.0659s-.0204-.0555-.0454-.0305-.0882-.0157-.14-.0904c-.0723-.103-.077-.17-.0195-.277.0416-.0777.0546-.21.0289-.293-.0592-.193.000511-.139.138.125.0934.179.107.186.107.0537.000234-.0828.0236-.165.052-.182.0283-.0175.0574.157.0647.388.0117.373.176.915.305 1.01.0262.0191.00385.0946-.0496.168-.0535.0731-.0972.108-.0972.077 0-.0307-.0445-.019-.0988.0261-.0805.0668-.119.043-.208-.129zm-1.96-.0736c0-.0567.03-.149.0666-.206.0592-.0916.0666-.0916.0666 0 0 .0567-.03.149-.0666.206-.0592.0916-.0666.0916-.0666 0zm-2.95-.395c-.075-.175-.0733-.179.0233-.0556.0573.0734.104.158.104.189 0 .104-.0466.0557-.128-.133zm-.205-.398c-.115-.253-.0932-.307.0313-.0769.0581.107.0928.208.0771.224-.0157.0157-.0645-.0503-.108-.147zm3.36-.27c0-.229.00684-.236.17-.161.119.0541.166.126.157.239-.00736.0888-.0389.161-.0701.161s-.0517-.0386-.0456-.0859c.0219-.169-.00633-.258-.0818-.258-.0448 0-.0631.0715-.0439.172.0181.0945.00624.172-.0263.172-.0325 0-.0592-.108-.0592-.239zm5.75.000117c.0277-.0722-.0024-.105-.0972-.105-.147 0-.25-.171-.176-.292.0266-.0431.0126-.053-.0341-.0241-.113.0697-.0983-.0187.023-.14.0563-.0563.212-.12.346-.142.134-.0217.229-.0539.211-.0715-.0176-.0176.051-.115.152-.217.207-.208.394-.203.45.0112.0442.169.0019.257-.124.257-.0501 0-.142.0783-.205.174-.0632.0965-.148.153-.19.127-.0457-.0282-.057-.0159-.0282.0307.0632.102-.0638.334-.233.424-.109.0584-.127.0523-.0941-.0328zm-5.34-.27c.0916-.11.349-.191.349-.11 0 .0306-.0962.0891-.214.13-.179.0625-.201.0593-.135-.0202zm-.374-.107c.0223-.0361.086-.0483.141-.027.142.0545.125.0927-.0406.0927-.0778 0-.123-.0296-.101-.0657zm1.22-.226c.0353-.0942.00838-.12-.125-.12-.0933 0-.17-.0288-.17-.0639 0-.0381.0818-.0405.202-.00588.138.0396.213.0326.235-.022.018-.044.0351-.0297.0381.0318.003.0615-.0467.154-.111.206-.102.0826-.11.0794-.0709-.0259zm4.12-.0648c.0096-.0459-.029-.0849-.0856-.0866-.228-.00711-.773-.45-.553-.45.0335 0 .0732.0371.0883.0825.0207.0621.0397.0627.0769.0026.0316-.0512-.0317-.103-.176-.145-.226-.0651-.226-.0651.0663-.0713.161-.0034.292.0178.292.0472 0 .0293.128.0412.284.0263.182-.0174.268-.00188.24.0433-.0239.0387-.105.0542-.181.0344-.0755-.0198-.137-.00237-.137.0386 0 .0415.051.055.115.0304.0865-.0332.104-.0162.0716.0689-.0238.0622-.0016.155.0496.206.0782.0782.0722.106-.0375.174-.101.0633-.127.0629-.113-.0019zm-4.99-.0326c-.0698-.0698-.0546-.16.027-.16.04 0 .055.0287.0333.0638-.0217.0351.0306.0773.116.0937.143.0275.144.0307.0125.0393-.0787.00515-.164-.0113-.189-.0364zm-3.71-.233c-.0407-.156.132-.546.242-.546.07 0 .0735-.0177-.0734.369-.11.29-.133.314-.168.177zm7.61.0101c.0212-.0343-.0211-.0467-.0939-.0277-.1.0262-.127.00389-.108-.0923.0132-.0698.0264-.149.0292-.176.0029-.0272.0515-.0316.108-.00998.0565.0217.0876.0638.0691.0937-.0185.0299.0146.0728.0735.0954.111.0424.0745.179-.0472.179-.0378 0-.0514-.028-.0302-.0623zm-4.45-.112c-.058-.058-.122-.104-.142-.103-.176.0117-.198-.00128-.125-.0747.0571-.0571.132-.038.289.0734.116.0828.211.164.211.18 0 .0666-.134.0229-.233-.0758zm2.88-.0319c.0234-.0378.00786-.0687-.0344-.0687-.0422 0-.0564-.033-.0315-.0734.025-.0404.0963-.0557.159-.0342.0835.0289.0783.0121-.0201-.064-.126-.0973-.126-.103-.00762-.103.0692 0 .166.0541.216.12.081.108.0864.103.054-.0515-.0314-.149-.0242-.158.0549-.0637.05.0594.153.144.228.187.127.0728.122.0795-.0687.0877-.203.00879-.203.00985-.0344.0639.135.0431.0929.0565-.193.0619-.227.00427-.349-.0191-.322-.0619zm-.408-.174c-.0749-.0566-.0953-.101-.0466-.101.0477 0 .133.0464.19.103.132.132.0318.13-.143-.00219zm.967-.0866c-.0185-.0299.026-.0589.099-.0644.073-.0055.133.019.133.0544 0 .0782-.185.0862-.232.00999zm-5.13-.512c-6.85e-5-.0727.259-.0643.305.00988.0209.0338-.0391.057-.133.0515-.0942-.00543-.171-.0331-.171-.0614zm-1.33-.0443c-.123-.0481-.124-.0552-.0116-.0982.223-.0855.499-.0529.499.059 0 .0725-.0221.0832-.071.0344-.039-.039-.134-.0688-.212-.0662-.139.00478-.139.00542-.00342.0639.173.0743-.0129.0809-.201.00719z" fill="#332e2b" stroke-width=".0687"/>
</svg>
